{"glyphs":{"0":{"ha":701,"x_min":65,"x_max":738,"o":"m 578 590 q 557 670 578 643 q 498 697 537 697 q 406 654 452 697 q 314 525 359 610 q 254 376 278 456 q 230 242 230 299 q 255 167 230 196 q 317 137 279 137 q 492 288 412 137 q 538 393 517 335 q 567 499 555 444 q 578 590 578 549 m 302 -14 q 194 3 237 -14 q 119 60 150 21 q 65 228 65 126 q 82 369 65 297 q 130 512 99 444 q 203 646 160 583 q 514 842 335 842 q 633 812 581 842 q 711 724 683 781 q 738 593 738 668 q 722 442 738 520 q 677 295 706 364 q 609 165 646 220 q 524 67 570 107 q 302 -14 428 -14 z "},"1":{"ha":399,"x_min":33,"x_max":477,"o":"m 50 120 l 278 682 l 231 682 l 215 682 q 163 699 181 684 q 144 744 144 714 q 174 808 144 783 q 244 833 203 833 l 260 833 l 396 833 q 455 816 432 833 q 477 768 477 799 q 467 724 477 748 l 208 85 q 163 13 186 34 q 101 -9 138 -9 q 52 9 72 -9 q 33 55 33 28 q 43 102 33 79 l 50 120 z "},"2":{"ha":617,"x_min":41,"x_max":659,"o":"m 587 444 l 296 149 l 498 149 l 514 149 q 584 88 584 149 q 555 26 584 51 q 486 0 525 0 l 469 0 l 132 0 q 66 21 90 0 q 41 77 41 42 q 48 113 41 99 q 75 149 55 128 l 455 540 q 488 609 488 574 q 463 666 488 643 q 402 690 437 690 q 340 665 366 690 q 314 606 314 641 q 324 562 314 583 l 339 532 q 347 496 347 517 q 326 441 347 463 q 270 419 304 419 q 182 469 217 419 q 146 590 146 519 q 181 718 146 661 q 278 810 217 777 q 412 842 339 842 q 511 826 466 842 q 591 779 557 808 q 642 705 625 747 q 659 612 659 663 q 640 522 659 566 q 587 444 621 477 z "},"3":{"ha":628,"x_min":37,"x_max":688,"o":"m 662 684 l 499 509 q 604 318 604 438 q 538 115 604 209 q 431 20 494 52 q 284 -14 367 -14 q 155 14 212 -14 q 68 92 99 42 q 37 205 37 141 q 73 324 37 275 q 155 373 107 373 q 205 353 183 373 q 226 307 226 334 q 220 270 226 292 q 206 209 206 224 q 229 158 206 179 q 284 137 251 137 q 359 162 323 137 q 414 230 393 187 q 435 319 435 272 q 353 425 435 397 q 295 489 295 442 q 317 544 295 519 l 331 559 l 444 684 l 290 684 l 273 684 q 204 745 204 686 q 233 808 204 783 q 302 833 260 833 l 319 833 l 581 833 q 663 814 637 833 q 688 752 688 795 q 662 684 688 713 z "},"4":{"ha":718,"x_min":37,"x_max":728,"o":"m 252 324 l 396 324 l 519 601 l 252 324 m 707 663 l 569 324 l 622 324 l 639 324 q 690 309 671 324 q 709 263 709 294 q 680 200 709 225 q 610 174 650 174 l 593 174 l 509 174 l 473 85 l 465 67 q 424 11 448 30 q 365 -9 398 -9 q 316 9 336 -9 q 296 56 296 28 q 306 102 296 79 l 313 121 l 335 174 l 161 174 q 71 202 105 174 q 37 275 37 230 q 50 330 37 307 q 94 385 64 355 l 460 747 q 551 823 516 802 q 623 842 585 842 q 698 815 669 842 q 728 748 728 787 q 707 663 728 715 z "},"5":{"ha":621,"x_min":37,"x_max":694,"o":"m 576 680 l 397 680 l 347 555 q 397 562 374 562 q 500 534 454 562 q 570 454 545 505 q 595 336 595 403 q 552 159 595 240 q 434 33 508 78 q 271 -14 360 -14 q 149 12 203 -14 q 66 85 96 37 q 37 193 37 133 q 68 304 37 262 q 147 347 99 347 q 198 328 178 347 q 218 280 218 309 q 214 249 218 264 l 208 222 q 205 199 205 211 q 225 155 205 173 q 273 137 245 137 q 349 165 312 137 q 408 239 384 193 q 430 336 430 286 q 410 399 430 374 q 357 423 389 423 q 309 410 332 423 l 264 386 q 218 374 243 374 q 163 395 186 374 q 141 448 141 417 q 153 494 141 463 l 263 764 q 302 821 281 809 q 378 833 323 833 l 606 833 l 623 833 q 694 770 694 831 q 665 707 694 734 q 593 680 635 680 l 576 680 z "},"6":{"ha":591,"x_min":37,"x_max":600,"o":"m 435 336 q 412 397 435 373 q 353 420 389 420 q 283 391 319 420 q 226 316 247 361 q 203 222 203 271 q 227 163 203 188 q 281 138 249 138 q 354 166 319 138 q 413 241 390 195 q 435 336 435 288 m 462 686 l 379 557 q 414 560 408 560 q 509 532 465 560 q 576 456 551 504 q 600 349 600 409 q 575 212 600 276 q 504 94 550 146 q 399 15 458 43 q 273 -14 339 -14 q 151 15 205 -14 q 67 96 97 43 q 37 212 37 148 q 56 322 37 269 q 119 446 74 374 l 314 758 q 366 821 344 804 q 422 838 389 838 q 475 818 453 838 q 496 770 496 799 q 473 704 496 740 l 462 686 z "},"7":{"ha":530,"x_min":69,"x_max":636,"o":"m 100 134 l 435 681 l 221 681 l 204 681 q 133 743 133 682 q 163 807 133 779 q 234 833 193 833 l 251 833 l 520 833 q 600 817 574 833 q 627 789 616 808 q 636 751 636 770 q 614 681 636 719 l 244 70 l 234 52 q 140 -9 197 -9 q 90 10 110 -9 q 69 57 69 29 q 77 90 69 72 q 100 134 85 111 z "},"8":{"ha":625,"x_min":41,"x_max":689,"o":"m 437 305 q 413 363 437 341 q 349 386 389 386 q 281 363 315 386 q 229 304 248 340 q 208 227 208 267 q 233 165 208 189 q 294 142 258 142 q 393 193 347 142 q 437 305 437 243 m 529 627 q 509 682 529 663 q 454 701 490 701 q 399 684 426 701 q 355 639 372 667 q 338 581 338 612 q 359 530 338 550 q 414 510 381 510 q 469 527 444 510 q 513 571 495 543 q 529 627 529 599 m 536 448 q 587 382 572 417 q 602 300 602 348 q 577 180 602 235 q 507 80 552 123 q 405 12 460 35 q 283 -14 349 -14 q 108 47 174 -14 q 41 205 41 107 q 65 317 41 262 q 132 411 89 372 q 229 470 176 451 q 190 526 201 500 q 178 587 178 552 q 218 714 178 654 q 327 808 258 772 q 473 842 395 842 q 585 819 534 842 q 662 750 634 795 q 689 649 689 707 q 648 525 689 578 q 536 448 608 472 z "},"9":{"ha":591,"x_min":97,"x_max":663,"o":"m 496 608 q 473 668 496 643 q 415 693 450 693 q 298 608 346 689 q 263 493 263 548 q 287 435 263 459 q 343 411 311 411 q 412 437 380 413 q 466 501 445 462 q 487 555 477 521 q 496 608 496 585 m 233 144 l 317 271 l 302 271 q 291 270 298 270 q 191 298 237 270 q 122 373 146 326 q 97 481 97 420 q 124 618 97 549 q 198 739 152 687 q 300 817 243 790 q 420 842 357 842 q 544 814 488 842 q 631 735 599 785 q 663 624 663 685 q 647 522 663 578 q 604 425 631 467 l 380 71 q 328 9 353 27 q 270 -9 303 -9 q 220 12 241 -9 q 197 58 197 33 q 233 144 197 90 z "},"×":{"ha":0,"x_min":0,"x_max":0,"o":""},"ý":{"ha":0,"x_min":0,"x_max":0,"o":""}," ":{"ha":259,"x_min":0,"x_max":0,"o":""},"!":{"ha":426,"x_min":56,"x_max":471,"o":"m 454 713 l 305 311 q 218 208 267 208 q 171 227 191 208 q 151 273 151 247 q 158 317 151 289 l 286 781 q 323 844 297 821 q 383 867 349 867 q 445 843 419 867 q 471 783 471 819 q 454 713 471 758 m 150 -18 q 103 -5 124 -18 q 68 29 81 7 q 56 76 56 50 q 68 123 56 102 q 103 158 82 145 q 149 170 125 170 q 197 157 176 170 q 231 123 218 144 q 244 75 244 102 q 217 9 244 35 q 150 -18 190 -18 z "},"\"":{"ha":515,"x_min":185,"x_max":571,"o":"m 384 620 l 389 631 l 452 789 l 457 801 q 513 843 475 843 q 554 827 537 843 q 571 787 571 810 q 565 758 571 773 l 559 745 l 496 588 l 492 576 q 435 534 473 534 q 395 551 412 534 q 378 589 378 568 q 384 620 378 604 m 191 620 l 196 631 l 260 789 l 264 801 q 320 843 283 843 q 361 827 345 843 q 378 787 378 810 q 372 758 378 774 l 367 745 l 304 588 l 298 576 q 243 534 281 534 q 203 551 220 534 q 185 589 185 568 q 191 620 185 604 z "},"#":{"ha":555,"x_min":46,"x_max":509,"o":"m 56 916 l 56 9 l 500 9 l 500 916 l 56 916 m 509 0 l 46 0 l 46 926 l 509 926 l 509 0 z "},"$":{"ha":528,"x_min":12,"x_max":610,"o":"m 517 836 l 529 836 q 610 772 610 836 q 597 725 610 747 q 559 691 583 703 q 507 678 536 678 l 490 678 l 401 678 l 385 678 q 330 640 330 677 q 341 599 330 624 l 453 347 q 490 196 490 264 q 463 100 490 143 q 389 30 435 55 q 282 0 340 3 l 269 -31 q 234 -81 257 -62 q 183 -99 211 -99 q 134 -79 154 -99 q 113 -30 113 -60 q 118 0 113 -20 l 102 0 l 85 0 q 12 64 12 1 q 42 128 12 100 q 115 155 71 155 l 132 155 l 269 155 q 314 170 297 155 q 330 208 330 184 q 322 242 330 223 l 200 524 l 191 545 q 165 650 165 604 q 216 777 165 726 q 351 836 267 828 l 359 859 q 393 903 371 886 q 440 920 414 920 q 465 916 452 920 q 488 904 476 911 q 503 889 496 899 q 517 836 514 873 z "},"%":{"ha":849,"x_min":111,"x_max":840,"o":"m 745 294 q 708 342 745 342 q 614 260 660 342 q 571 123 571 184 q 583 90 571 103 q 611 77 593 77 q 701 149 659 77 q 732 224 718 180 q 745 294 745 264 m 383 714 q 345 762 383 762 q 252 680 297 762 q 208 544 208 604 q 220 510 208 524 q 249 497 231 497 q 338 568 298 497 q 383 714 383 647 m 175 66 l 698 804 l 704 812 q 753 840 726 840 q 783 830 770 840 q 794 806 794 820 q 777 765 794 790 l 253 26 l 247 18 q 198 -10 227 -10 q 169 1 180 -10 q 157 25 157 11 q 175 66 157 39 m 604 -7 q 509 26 543 -7 q 474 117 474 58 q 493 221 474 168 q 548 324 513 275 q 715 422 621 422 q 806 388 772 422 q 840 294 840 354 q 807 147 840 222 q 724 34 774 73 q 604 -7 673 -7 m 241 414 q 146 446 180 414 q 111 536 111 479 q 132 643 111 588 q 186 745 151 697 q 353 842 256 842 q 444 808 410 842 q 477 715 477 774 q 444 567 477 640 q 361 454 410 492 q 241 414 310 414 z "},"&":{"ha":1090,"x_min":46,"x_max":1053,"o":"m 598 90 l 711 364 l 529 364 q 347 338 412 364 q 273 288 307 321 q 221 213 239 254 q 203 123 203 170 q 256 -5 203 45 q 393 -55 309 -55 q 515 -14 457 -55 q 598 90 573 26 m 962 559 l 943 512 l 966 512 l 983 512 q 1034 496 1015 512 q 1053 451 1053 481 q 1040 408 1053 427 q 1006 376 1027 387 q 956 364 983 364 l 940 364 l 882 364 l 756 59 q 666 -85 722 -26 q 538 -176 610 -146 q 377 -208 465 -208 q 205 -168 281 -208 q 87 -54 130 -128 q 46 113 46 18 q 72 252 46 185 q 144 371 98 321 q 256 453 192 422 q 398 493 301 475 q 358 561 372 524 q 345 630 345 593 q 390 776 345 707 q 505 880 435 845 q 716 921 591 921 l 874 921 l 890 921 q 960 860 960 919 q 933 798 960 823 q 864 773 906 773 l 848 773 l 707 773 q 585 750 631 773 q 524 694 548 731 q 500 618 500 658 q 515 567 500 590 q 553 531 529 542 q 596 518 567 524 q 643 512 624 512 l 772 512 l 808 597 l 815 616 q 854 669 830 650 q 911 688 879 688 q 960 669 941 688 q 979 625 979 651 q 962 559 979 602 z "},"'":{"ha":323,"x_min":185,"x_max":378,"o":"m 191 620 l 196 631 l 260 789 l 264 801 q 320 843 283 843 q 361 827 345 843 q 378 787 378 810 q 372 758 378 774 l 367 745 l 304 588 l 298 576 q 243 534 281 534 q 203 551 220 534 q 185 589 185 568 q 191 620 185 604 z "},"(":{"ha":555,"x_min":180,"x_max":680,"o":"m 372 -82 q 299 -158 368 -158 q 212 -68 238 -158 q 186 96 195 -12 q 180 239 180 164 q 224 544 180 397 q 359 831 268 686 q 431 934 387 876 q 507 1023 467 980 q 606 1076 557 1076 q 659 1058 638 1076 q 680 1010 680 1040 q 672 976 680 992 q 637 925 665 961 q 534 780 612 892 q 400 503 446 646 q 354 210 354 357 l 354 170 q 353 153 353 164 q 358 69 355 102 l 370 -48 q 372 -82 372 -74 z "},")":{"ha":555,"x_min":9,"x_max":509,"o":"m 317 1001 q 389 1077 321 1077 q 477 987 451 1077 q 503 824 493 930 q 509 680 509 756 q 490 474 509 571 q 431 280 471 376 q 330 88 392 186 q 182 -104 258 -24 q 83 -157 131 -157 q 31 -138 50 -157 q 9 -92 9 -119 q 19 -53 9 -72 q 52 -5 28 -35 q 155 139 83 33 q 233 275 197 203 q 290 418 267 347 q 323 564 313 490 q 335 710 335 641 l 335 766 q 331 850 335 809 l 319 968 q 317 1001 317 992 z "},"*":{"ha":581,"x_min":203,"x_max":681,"o":"m 505 856 l 450 717 l 569 810 q 610 836 602 836 q 660 809 639 836 q 681 748 681 783 q 669 704 681 722 q 637 684 656 686 q 634 684 637 684 q 628 685 631 684 q 606 686 626 685 l 456 700 l 581 616 q 615 591 609 598 q 622 567 622 583 q 595 512 622 536 q 534 487 568 487 q 488 507 500 487 q 477 544 487 507 l 442 689 l 407 545 q 388 498 399 509 q 352 486 376 486 q 290 512 318 486 q 263 571 263 537 q 269 592 263 585 q 302 616 275 600 l 427 700 l 279 689 l 267 689 q 255 688 263 688 q 218 706 231 688 q 203 750 203 724 q 225 809 203 780 q 270 838 247 838 q 317 812 287 838 l 433 718 l 377 857 q 365 894 365 886 q 389 932 365 915 q 442 949 412 949 q 495 933 473 949 q 517 895 517 916 q 505 856 517 884 z "},"+":{"ha":555,"x_min":46,"x_max":509,"o":"m 56 916 l 56 9 l 500 9 l 500 916 l 56 916 m 509 0 l 46 0 l 46 926 l 509 926 l 509 0 z "},",":{"ha":370,"x_min":18,"x_max":244,"o":"m 50 -27 l 80 14 q 57 81 57 52 q 85 144 57 117 q 151 170 113 170 q 218 143 191 170 q 244 76 244 116 q 225 11 244 40 q 156 -61 205 -20 q 94 -105 117 -94 q 56 -117 73 -117 q 31 -107 43 -117 q 18 -86 18 -98 q 36 -47 18 -73 l 50 -27 z "},"-":{"ha":602,"x_min":93,"x_max":509,"o":"m 157 347 l 170 347 l 432 347 l 445 347 q 492 332 475 347 q 509 290 509 317 q 492 248 509 263 q 445 231 473 231 l 432 231 l 170 231 l 157 231 q 111 248 129 232 q 93 290 93 264 q 111 331 93 315 q 157 347 129 347 z "},".":{"ha":370,"x_min":56,"x_max":244,"o":"m 150 -18 q 103 -5 124 -18 q 68 29 81 7 q 56 76 56 50 q 68 123 56 102 q 103 158 82 145 q 149 170 125 170 q 197 157 176 170 q 231 123 218 144 q 244 75 244 102 q 217 9 244 35 q 150 -18 190 -18 z "},"/":{"ha":642,"x_min":41,"x_max":783,"o":"m 60 15 l 647 943 q 728 1002 685 1002 q 768 987 753 1002 q 783 949 783 973 q 766 902 783 928 l 180 -28 q 100 -89 140 -89 q 59 -73 77 -89 q 41 -35 41 -58 q 60 15 41 -15 z "},":":{"ha":370,"x_min":56,"x_max":347,"o":"m 150 -18 q 103 -5 124 -18 q 68 29 81 7 q 56 76 56 50 q 68 123 56 102 q 103 158 82 145 q 149 170 125 170 q 197 157 176 170 q 231 123 218 144 q 244 75 244 102 q 217 9 244 35 q 150 -18 190 -18 m 252 339 q 205 352 226 339 q 170 387 182 364 q 157 433 157 408 q 170 481 157 459 q 205 515 184 503 q 250 528 227 528 q 319 500 291 528 q 347 432 347 472 q 319 367 347 394 q 252 339 292 339 z "},";":{"ha":370,"x_min":18,"x_max":337,"o":"m 50 -27 l 80 14 q 57 81 57 52 q 85 144 57 117 q 151 170 113 170 q 218 143 191 170 q 244 76 244 116 q 225 11 244 40 q 156 -61 205 -20 q 94 -105 117 -94 q 56 -117 73 -117 q 31 -107 43 -117 q 18 -86 18 -98 q 36 -47 18 -73 l 50 -27 m 242 339 q 195 352 216 339 q 161 387 173 364 q 148 433 148 408 q 161 481 148 459 q 195 515 174 503 q 241 528 217 528 q 290 515 268 528 q 324 480 311 502 q 337 432 337 459 q 310 367 337 394 q 242 339 282 339 z "},"<":{"ha":787,"x_min":-148,"x_max":779,"o":"m 456 675 l 392 518 l 633 518 q 684 515 673 518 q 718 493 705 511 q 732 453 732 475 q 722 406 732 430 l 714 388 l 616 148 l 693 148 l 710 148 q 779 87 779 147 q 750 26 779 51 q 681 0 720 0 l 665 0 l 557 0 q 462 24 496 0 q 429 92 429 49 q 442 148 429 115 l 533 370 l 332 370 l 28 -380 l 20 -398 q -79 -474 -12 -474 q -127 -455 -109 -474 q -148 -410 -148 -437 q -145 -386 -148 -396 q -130 -345 -142 -373 l 159 370 l 114 370 l 97 370 q 28 431 28 372 q 57 493 28 468 q 126 518 85 518 l 142 518 l 220 518 l 306 731 q 410 880 347 834 q 572 926 470 926 l 650 926 l 667 926 q 736 865 736 925 q 707 802 736 827 q 637 776 677 776 l 621 776 l 601 776 q 511 753 543 776 q 456 675 479 730 z "},"=":{"ha":553,"x_min":18,"x_max":655,"o":"m 36 66 l 559 804 l 565 812 q 614 840 587 840 q 643 830 631 840 q 655 806 655 820 q 637 765 655 791 l 114 26 l 108 18 q 59 -10 87 -10 q 30 1 41 -10 q 18 25 18 11 q 36 66 18 39 z "},">":{"ha":789,"x_min":-148,"x_max":897,"o":"m 142 518 l 220 518 l 306 731 q 368 842 334 800 q 447 902 399 882 q 517 922 480 917 q 629 926 553 926 l 789 926 q 871 911 846 926 q 897 862 897 896 q 886 815 897 841 l 879 797 l 616 148 l 687 148 l 703 148 q 772 87 772 147 q 744 26 772 52 q 675 0 714 0 l 658 0 l 536 0 q 458 23 487 0 q 427 83 427 45 q 448 158 427 111 l 699 776 l 601 776 q 511 753 543 776 q 456 675 479 730 l 392 518 l 439 518 l 456 518 q 526 458 526 517 q 496 396 526 421 q 427 370 467 370 l 411 370 l 332 370 l 28 -380 l 20 -398 q -79 -474 -12 -474 q -127 -455 -109 -474 q -148 -410 -148 -437 q -145 -386 -148 -396 q -130 -345 -142 -373 l 159 370 l 114 370 l 97 370 q 28 431 28 372 q 57 493 28 468 q 126 518 85 518 l 142 518 z "},"?":{"ha":685,"x_min":153,"x_max":673,"o":"m 432 865 q 529 849 484 865 q 605 804 574 832 q 655 736 637 774 q 673 649 673 695 q 645 537 673 585 q 543 429 616 489 q 516 408 524 414 q 481 378 513 406 q 437 338 458 360 q 414 307 422 323 l 387 248 q 322 203 368 203 q 270 224 292 203 q 248 276 248 246 q 265 347 248 312 q 315 422 281 381 q 405 513 350 463 q 477 581 462 564 q 501 639 501 612 q 477 691 501 669 q 420 713 454 713 q 376 701 397 713 q 340 670 353 689 q 328 629 328 651 q 340 574 328 614 q 347 534 347 553 q 326 483 347 503 q 275 463 304 463 q 196 506 227 463 q 164 612 164 550 q 199 743 164 685 q 294 833 233 800 q 432 865 356 865 m 247 -18 q 200 -5 221 -18 q 165 29 178 7 q 153 76 153 50 q 165 123 153 102 q 200 158 179 145 q 245 170 222 170 q 294 157 273 170 q 329 123 316 144 q 342 75 342 102 q 315 9 342 37 q 247 -18 287 -18 z "},"@":{"ha":555,"x_min":46,"x_max":509,"o":"m 56 916 l 56 9 l 500 9 l 500 916 l 56 916 m 509 0 l 46 0 l 46 926 l 509 926 l 509 0 z "},"A":{"ha":1488,"x_min":0,"x_max":1507,"o":"m 509 0 l 709 347 l 652 347 q 532 339 588 347 q 429 314 475 330 q 345 275 378 297 q 260 203 294 243 q 205 114 225 161 q 186 20 186 66 q 227 -90 186 -46 q 330 -136 269 -136 q 463 -62 400 -136 q 509 0 490 -31 m 1006 509 l 1169 509 l 1267 750 q 1182 728 1219 747 q 1112 670 1145 709 q 1034 555 1076 627 l 1006 509 m 1049 214 l 1103 347 l 916 347 l 691 -41 q 608 -161 656 -101 q 313 -317 486 -317 q 155 -273 227 -317 q 41 -153 83 -230 q 0 16 0 -77 q 21 138 0 78 q 81 254 42 200 q 176 356 118 307 q 295 434 231 403 q 382 469 335 454 q 480 492 430 484 q 602 505 531 501 q 753 509 671 509 l 802 509 l 857 608 q 1129 882 968 812 q 1204 905 1155 893 q 1305 920 1254 916 q 1409 926 1362 926 q 1470 906 1446 926 q 1492 855 1492 887 q 1478 802 1492 838 l 1361 509 l 1413 509 l 1431 509 q 1507 443 1507 507 q 1475 376 1507 404 q 1400 347 1444 347 l 1381 347 l 1295 347 l 1220 162 l 1331 162 l 1349 162 q 1424 96 1424 161 q 1411 49 1424 71 q 1371 14 1396 26 q 1317 0 1345 0 l 1299 0 l 1154 0 q 1059 31 1095 0 q 1022 110 1022 60 q 1049 214 1022 146 z "},"B":{"ha":1158,"x_min":-213,"x_max":1176,"o":"m 282 -185 l 106 -185 q 39 -193 62 -185 q -10 -227 7 -205 q -27 -279 -27 -250 q 2 -344 -27 -317 q 72 -370 32 -370 q 190 -320 134 -370 q 282 -185 247 -269 m 688 347 l 538 -23 l 593 -23 q 795 16 724 -23 q 887 106 852 48 q 922 228 922 165 q 905 294 922 267 q 857 334 888 322 q 745 347 821 347 l 688 347 m 857 764 l 754 509 q 795 510 789 509 q 856 515 832 510 q 899 528 882 519 q 938 554 918 536 q 981 614 964 578 q 998 683 998 649 q 983 733 998 712 q 939 760 968 752 q 876 764 924 764 l 865 764 l 857 764 m 348 -23 l 667 764 l 591 764 l 573 764 q 517 782 536 765 q 497 829 497 800 q 529 897 497 869 q 604 926 561 926 l 623 926 l 898 926 q 992 919 958 926 q 1063 893 1029 911 q 1146 816 1117 865 q 1176 702 1176 766 q 1155 595 1176 648 q 1096 501 1134 543 q 1062 469 1084 488 q 1025 446 1044 456 q 975 425 1006 436 q 1099 222 1099 366 q 1073 83 1099 152 q 996 -41 1045 14 q 882 -130 946 -97 q 800 -160 846 -149 q 696 -178 753 -172 q 572 -185 641 -185 l 472 -185 l 464 -204 q 401 -334 423 -294 q 342 -413 378 -374 q 259 -481 304 -452 q 164 -524 214 -508 q 60 -539 112 -539 q -80 -507 -18 -539 q -178 -416 -142 -475 q -213 -288 -213 -359 q -173 -147 -213 -212 q -66 -54 -134 -84 q 111 -23 5 -23 l 348 -23 z "},"C":{"ha":825,"x_min":46,"x_max":950,"o":"m 473 625 l 605 625 q 713 639 679 625 q 758 672 743 651 q 773 717 773 692 q 751 762 773 744 q 696 780 730 780 q 631 766 664 780 q 565 723 600 752 q 473 625 511 678 m 549 463 l 372 463 q 281 158 281 300 q 301 54 281 94 q 363 -4 320 14 q 476 -23 404 -23 l 853 -23 l 871 -23 q 928 -40 909 -23 q 947 -89 947 -57 q 933 -136 947 -115 q 894 -172 919 -159 q 840 -185 868 -185 l 821 -185 l 428 -185 l 405 -185 q 246 -144 316 -185 q 136 -28 175 -102 q 96 137 96 45 q 114 285 96 211 q 178 463 132 359 l 140 463 l 122 463 q 66 481 85 465 q 46 529 46 499 q 78 596 46 568 q 153 625 110 625 l 172 625 l 270 625 q 434 821 332 728 q 718 940 566 940 q 812 924 770 940 q 886 878 854 907 q 933 808 915 850 q 950 721 950 770 q 911 592 950 650 q 800 500 871 534 q 633 467 741 475 q 549 463 586 463 z "},"D":{"ha":1245,"x_min":-213,"x_max":1245,"o":"m 286 -185 l 106 -185 q 39 -193 62 -185 q -10 -227 7 -205 q -27 -279 -27 -250 q 3 -344 -27 -318 q 73 -370 33 -370 q 192 -321 136 -370 q 286 -185 250 -271 m 861 764 l 542 -23 l 564 -23 q 701 -3 638 -23 q 818 58 764 16 q 920 163 871 99 q 1029 358 989 253 q 1068 552 1068 461 q 1055 641 1068 600 q 1014 707 1040 679 q 949 749 987 734 q 861 764 910 764 m 351 -23 l 671 764 l 603 764 l 585 764 q 529 782 548 765 q 509 829 509 800 q 541 897 509 869 q 616 926 573 926 l 635 926 l 833 926 q 983 911 920 926 q 1095 864 1048 896 q 1160 810 1134 840 q 1206 739 1187 779 q 1236 653 1225 700 q 1245 555 1245 606 q 1221 374 1245 467 q 1153 195 1196 279 q 1048 39 1109 111 q 913 -82 987 -31 q 828 -130 870 -111 q 739 -161 786 -149 q 518 -185 646 -185 l 476 -185 l 467 -204 q 403 -336 427 -296 q 345 -413 379 -376 q 262 -481 308 -452 q 168 -524 218 -508 q 62 -539 115 -539 q -79 -507 -17 -539 q -177 -416 -141 -475 q -213 -287 -213 -357 q -195 -189 -213 -235 q -143 -109 -176 -142 q -66 -54 -110 -73 q 111 -23 5 -23 l 351 -23 z "},"E":{"ha":1063,"x_min":-213,"x_max":1276,"o":"m 285 -185 l 106 -185 q 39 -193 62 -185 q -10 -227 7 -205 q -27 -279 -27 -250 q 3 -344 -27 -318 q 73 -370 33 -370 q 192 -321 136 -370 q 285 -185 249 -270 m 528 509 l 567 509 l 703 841 q 746 909 724 892 q 810 926 767 926 l 831 926 l 1181 926 l 1200 926 q 1256 909 1237 926 q 1276 860 1276 891 q 1244 792 1276 819 q 1168 764 1213 764 l 1150 764 l 861 764 l 758 509 l 842 509 l 861 509 q 937 443 937 507 q 905 376 937 404 q 829 347 873 347 l 811 347 l 692 347 l 542 -23 l 1010 -23 l 1028 -23 q 1103 -89 1103 -24 q 1072 -157 1103 -130 q 997 -185 1040 -185 l 979 -185 l 476 -185 l 467 -204 q 403 -336 427 -296 q 345 -413 379 -376 q 216 -505 291 -471 q 62 -539 140 -539 q -79 -507 -17 -539 q -177 -416 -141 -475 q -213 -287 -213 -358 q -195 -189 -213 -235 q -143 -109 -176 -142 q -66 -54 -110 -73 q 111 -23 5 -23 l 351 -23 l 501 347 l 492 347 l 479 347 q 422 366 441 349 q 403 413 403 383 q 435 481 403 452 q 510 509 467 509 l 528 509 z "},"F":{"ha":1224,"x_min":18,"x_max":1465,"o":"m 595 94 l 699 347 l 662 347 q 525 335 589 347 q 411 298 461 322 q 305 226 349 269 q 234 128 260 182 q 208 24 208 75 q 227 -58 208 -20 q 279 -117 246 -96 q 354 -138 313 -138 q 442 -115 399 -138 q 513 -55 485 -93 q 559 18 530 -32 q 595 94 583 60 m 1050 764 l 946 509 l 1034 509 l 1052 509 q 1127 443 1127 509 q 1113 395 1127 418 q 1074 360 1099 372 q 1020 347 1048 347 l 1002 347 l 880 347 l 749 22 q 618 -192 698 -102 q 540 -256 582 -231 q 446 -298 499 -282 q 343 -313 397 -313 q 177 -272 251 -313 q 60 -159 102 -231 q 18 4 18 -86 q 65 197 18 106 q 197 355 111 286 q 395 464 280 424 q 639 506 507 503 l 734 509 q 764 509 755 509 l 895 837 l 902 856 q 939 909 916 892 q 1002 926 962 926 l 1023 926 l 1371 926 l 1389 926 q 1445 909 1426 926 q 1465 860 1465 891 q 1434 792 1465 819 q 1357 764 1402 764 l 1339 764 l 1050 764 z "},"G":{"ha":1008,"x_min":-28,"x_max":972,"o":"m 502 625 l 633 625 q 742 639 707 625 q 787 672 772 651 q 802 717 802 692 q 780 762 802 745 q 724 780 757 780 q 612 739 670 780 q 502 625 552 697 m 484 -97 l 523 0 q 390 -6 435 -1 q 304 -26 344 -12 q 193 -99 233 -52 q 152 -205 152 -146 q 168 -268 152 -239 q 212 -313 184 -296 q 273 -330 240 -330 q 350 -304 311 -330 q 414 -236 387 -279 q 484 -97 448 -184 m 830 290 l 778 162 l 879 162 l 897 162 q 972 96 972 161 q 959 49 972 71 q 920 14 945 26 q 865 0 894 0 l 848 0 l 712 0 l 662 -125 q 600 -267 624 -222 q 540 -360 576 -313 q 268 -502 430 -502 q 152 -479 207 -502 q 57 -417 97 -457 q -5 -323 16 -376 q -28 -208 -28 -269 q 31 -20 -28 -105 q 74 31 50 8 q 127 74 98 54 q 193 111 156 94 q 315 150 253 139 q 481 161 374 159 l 589 162 l 612 220 q 508 201 562 201 q 412 221 456 201 q 334 278 368 240 q 290 357 303 315 q 275 463 277 399 l 182 463 l 164 463 q 108 481 127 465 q 88 529 88 499 q 120 596 88 568 q 195 625 152 625 l 213 625 l 311 625 q 428 793 357 718 q 574 903 496 865 q 735 940 652 940 q 857 912 802 940 q 941 835 912 884 q 971 723 971 785 q 934 592 971 650 q 829 500 897 533 q 675 467 780 477 q 606 463 631 463 l 452 463 l 452 454 q 452 448 452 452 q 479 385 452 408 q 552 362 505 362 q 646 389 600 362 l 683 410 q 764 437 730 437 q 825 415 800 437 q 849 361 849 393 q 846 332 849 342 q 830 290 844 321 z "},"H":{"ha":1514,"x_min":18,"x_max":1505,"o":"m 595 94 l 699 347 l 662 347 q 525 335 589 347 q 411 298 461 322 q 304 225 351 269 q 233 128 259 182 q 207 24 207 75 q 250 -91 207 -44 q 354 -138 292 -138 q 441 -116 399 -138 q 513 -55 484 -94 q 559 18 530 -32 q 595 94 583 60 m 1380 347 l 1293 347 l 1218 162 l 1335 162 l 1353 162 q 1409 145 1390 162 q 1429 96 1429 127 q 1397 28 1429 57 q 1322 0 1366 0 l 1303 0 l 1164 0 q 1095 10 1122 0 q 1042 53 1062 24 q 1022 112 1022 81 q 1037 183 1022 149 l 1048 210 l 1104 347 l 888 347 l 755 22 q 625 -192 704 -104 q 500 -281 573 -250 q 347 -313 426 -313 q 178 -272 253 -313 q 61 -158 102 -231 q 18 4 18 -86 q 65 197 18 106 q 197 355 111 286 q 395 464 280 424 q 638 506 505 503 l 734 509 q 764 509 755 509 l 897 834 l 904 854 q 1013 935 940 935 q 1067 916 1046 935 q 1089 867 1089 896 q 1078 817 1089 843 l 1070 797 l 954 509 l 1170 509 l 1301 831 l 1309 852 q 1418 935 1345 935 q 1472 916 1450 935 q 1493 865 1493 895 q 1474 793 1493 840 l 1359 509 l 1411 509 l 1430 509 q 1505 443 1505 507 q 1491 395 1505 418 q 1451 360 1476 372 q 1398 347 1426 347 l 1380 347 z "},"I":{"ha":817,"x_min":120,"x_max":762,"o":"m 715 555 l 555 162 l 669 162 l 686 162 q 743 145 724 162 q 762 96 762 127 q 749 49 762 71 q 709 14 734 26 q 655 0 684 0 l 637 0 l 513 0 q 460 3 473 0 q 425 15 444 6 q 378 55 395 29 q 361 111 361 80 q 389 220 361 149 l 526 555 l 552 624 q 567 686 567 661 q 538 748 567 723 q 471 774 509 774 q 387 746 427 774 q 322 673 347 718 q 298 578 298 627 q 364 485 298 513 q 416 456 405 468 q 429 416 429 443 q 399 352 429 377 q 329 326 370 326 q 225 358 274 326 q 149 446 176 391 q 120 568 120 503 q 172 753 120 667 q 309 890 222 839 q 495 941 396 941 q 596 923 547 941 q 677 875 643 906 q 730 803 712 843 q 750 713 750 760 q 715 555 750 643 z "},"J":{"ha":1020,"x_min":-33,"x_max":966,"o":"m 484 -97 l 522 0 q 390 -6 436 -1 q 304 -26 344 -12 q 192 -99 232 -52 q 152 -205 152 -147 q 168 -268 152 -239 q 212 -313 184 -296 q 273 -330 240 -330 q 385 -273 333 -330 q 484 -97 436 -218 m 928 555 l 771 162 l 872 162 l 890 162 q 946 145 927 162 q 966 96 966 127 q 952 49 966 71 q 913 14 938 26 q 859 0 887 0 l 840 0 l 707 0 l 657 -125 q 595 -267 619 -222 q 535 -360 571 -313 q 263 -502 425 -502 q 147 -479 202 -502 q 52 -417 92 -457 q -10 -323 12 -376 q -33 -208 -33 -269 q 26 -20 -33 -105 q 96 55 55 21 q 187 111 136 88 q 309 150 248 139 q 475 161 368 159 l 583 162 l 740 555 l 766 624 q 782 686 782 665 q 753 748 782 723 q 686 774 724 774 q 601 746 641 774 q 536 673 561 718 q 512 578 512 627 q 578 485 512 513 q 631 456 620 469 q 644 416 644 443 q 614 352 644 377 q 544 326 585 326 q 440 358 489 326 q 363 446 391 391 q 335 568 335 503 q 386 753 335 667 q 524 890 437 839 q 709 941 610 941 q 810 924 763 941 q 890 876 857 907 q 944 803 926 842 q 964 713 964 760 q 928 555 964 644 z "},"K":{"ha":1205,"x_min":120,"x_max":1390,"o":"m 1174 758 l 850 420 l 994 31 q 1022 -8 1004 3 q 1075 -20 1041 -20 l 1294 -20 l 1312 -20 q 1370 -37 1349 -20 q 1390 -87 1390 -56 q 1358 -156 1390 -127 q 1280 -185 1326 -185 l 1262 -185 l 1037 -185 q 942 -175 977 -185 q 886 -138 907 -165 q 844 -57 863 -108 l 665 429 l 524 83 q 475 4 502 27 q 408 -20 447 -20 q 355 1 376 -20 q 333 50 333 20 q 344 102 333 74 l 352 121 l 528 555 l 554 624 q 568 681 568 662 q 555 727 568 705 q 517 761 541 747 q 467 774 494 774 q 382 747 422 774 q 317 673 341 720 q 292 579 292 628 q 309 523 292 548 q 357 485 327 498 l 397 469 q 420 448 411 463 q 429 413 429 432 q 416 370 429 389 q 381 338 403 349 q 330 326 358 326 q 225 358 275 326 q 148 446 175 391 q 120 568 120 502 q 172 753 120 667 q 310 890 222 839 q 496 941 397 941 q 596 924 550 941 q 677 876 641 907 q 732 803 713 843 q 751 713 751 760 q 716 555 751 643 l 692 498 l 1048 870 l 1064 886 q 1152 932 1109 932 q 1208 911 1187 932 q 1230 854 1230 889 q 1190 774 1230 815 l 1174 758 z "},"L":{"ha":1045,"x_min":-176,"x_max":1175,"o":"m 321 -185 l 143 -185 q 75 -193 99 -185 q 28 -227 45 -203 q 10 -279 10 -250 q 39 -344 10 -319 q 110 -370 68 -370 q 229 -321 173 -370 q 321 -185 286 -270 m 866 686 l 847 639 l 879 639 q 925 646 901 639 q 966 663 951 653 q 991 692 981 673 q 1002 727 1002 710 q 988 765 1002 749 q 951 780 974 780 q 907 758 926 780 q 866 686 888 736 m 852 477 l 781 477 l 578 -23 l 1048 -23 l 1066 -23 q 1122 -40 1103 -23 q 1142 -89 1142 -58 q 1128 -136 1142 -115 q 1089 -172 1114 -159 q 1035 -185 1063 -185 l 1017 -185 l 513 -185 l 504 -204 q 439 -336 463 -296 q 382 -413 416 -376 q 252 -505 328 -471 q 99 -539 177 -539 q -42 -507 20 -539 q -140 -416 -104 -475 q -176 -287 -176 -358 q -136 -147 -176 -212 q -28 -54 -97 -84 q 148 -23 42 -23 l 387 -23 l 590 477 l 509 477 l 491 477 q 415 543 415 477 q 447 610 415 582 q 522 639 479 639 l 540 639 l 656 639 l 687 715 q 799 882 733 828 q 956 935 865 935 q 1068 909 1019 935 q 1147 836 1118 882 q 1175 730 1175 787 q 1135 599 1175 656 q 1020 509 1094 541 q 852 477 946 477 z "},"M":{"ha":1571,"x_min":37,"x_max":1580,"o":"m 1554 764 l 1310 162 l 1420 162 l 1438 162 q 1494 144 1474 162 q 1514 96 1514 127 q 1482 28 1514 57 q 1407 0 1451 0 l 1388 0 l 1259 0 q 1170 17 1203 0 q 1129 57 1145 30 q 1113 113 1113 83 q 1118 153 1113 136 q 1141 217 1124 175 l 1315 625 l 1185 484 q 1094 434 1139 434 q 1024 509 1042 434 l 1005 593 l 840 185 q 777 33 807 105 q 723 -75 753 -24 q 665 -161 694 -125 q 528 -275 604 -238 q 361 -312 452 -312 q 230 -288 291 -312 q 126 -222 168 -264 q 60 -121 83 -180 q 37 9 37 -64 q 112 260 37 143 q 312 447 186 377 q 581 515 437 515 q 675 494 642 515 q 708 431 708 471 q 675 364 708 385 q 561 338 642 343 q 431 309 492 335 q 324 241 370 283 q 254 142 281 200 q 229 24 229 85 q 269 -90 229 -49 q 378 -133 310 -133 q 517 -64 452 -133 q 595 62 552 -24 q 650 185 625 119 l 920 848 q 961 915 939 895 q 1015 935 983 935 q 1075 911 1053 935 q 1113 825 1097 888 l 1154 669 l 1358 869 q 1483 935 1426 935 q 1552 911 1522 935 q 1580 852 1580 886 q 1569 802 1580 826 l 1554 764 z "},"N":{"ha":1474,"x_min":37,"x_max":1706,"o":"m 1580 764 l 1498 764 l 1223 88 l 1211 56 q 1171 7 1196 24 q 1115 -9 1145 -9 q 1024 50 1045 -9 q 1012 126 1015 74 l 980 534 l 838 185 q 775 33 812 119 q 693 -121 737 -56 q 597 -229 648 -187 q 489 -291 547 -271 q 361 -312 431 -312 q 192 -272 267 -312 q 78 -159 117 -232 q 37 9 37 -86 q 112 260 37 143 q 313 447 186 378 q 581 515 438 515 q 675 494 642 515 q 708 431 708 471 q 675 364 708 385 q 561 338 642 343 q 431 309 492 335 q 324 241 370 283 q 254 142 281 200 q 229 24 229 85 q 269 -90 229 -47 q 378 -133 310 -133 q 517 -64 452 -133 q 596 62 553 -24 q 652 185 627 122 l 920 846 q 965 914 940 893 q 1029 935 990 935 q 1122 835 1114 935 l 1158 382 l 1341 835 l 1352 862 q 1388 911 1367 897 q 1444 925 1407 924 l 1473 926 l 1611 926 l 1630 926 q 1686 909 1667 926 q 1706 860 1706 891 q 1674 792 1706 821 q 1598 764 1643 764 l 1580 764 z "},"O":{"ha":935,"x_min":46,"x_max":949,"o":"m 470 625 l 602 625 q 711 639 675 625 q 755 672 740 652 q 770 717 770 692 q 749 762 770 745 q 693 780 726 780 q 581 739 640 780 q 470 625 522 698 m 174 463 l 140 463 l 122 463 q 66 481 85 465 q 46 529 46 499 q 78 596 46 568 q 153 625 110 625 l 172 625 l 267 625 l 286 650 q 385 772 342 730 q 477 852 425 814 q 711 939 598 939 q 833 911 778 939 q 919 835 888 884 q 949 722 949 785 q 932 633 949 675 q 881 557 915 591 q 800 500 848 524 q 639 467 747 477 q 568 463 593 463 l 364 463 q 291 289 319 376 q 263 140 263 201 q 303 22 263 67 q 404 -24 342 -24 q 610 115 514 -24 q 718 347 683 219 l 729 387 q 819 471 751 471 q 878 444 854 471 q 900 376 900 418 q 884 275 900 334 q 837 152 867 216 q 766 32 804 85 q 403 -191 614 -191 q 239 -148 312 -191 q 127 -29 168 -106 q 87 144 87 47 q 174 463 87 278 z "},"P":{"ha":1229,"x_min":37,"x_max":1354,"o":"m 1072 764 l 1015 625 l 1070 625 q 1149 648 1122 625 q 1177 713 1177 671 q 1162 751 1177 737 q 1116 764 1146 764 l 1072 764 m 1042 463 l 949 463 l 836 185 q 773 33 804 105 q 597 -227 698 -142 q 359 -312 496 -312 q 191 -272 265 -312 q 77 -159 117 -233 q 37 8 37 -87 q 112 260 37 141 q 200 366 149 319 q 312 446 250 412 q 581 515 438 515 q 675 494 642 515 q 708 431 708 471 q 675 364 708 385 q 562 338 642 343 q 431 309 492 335 q 324 241 370 283 q 254 142 281 200 q 229 24 229 85 q 269 -90 229 -49 q 376 -133 309 -133 q 515 -64 450 -133 q 593 62 550 -24 q 648 185 623 122 l 883 764 l 810 764 l 791 764 q 716 830 716 765 q 748 897 716 869 q 823 926 780 926 l 841 926 l 1099 926 q 1292 878 1230 926 q 1354 726 1354 829 q 1341 642 1354 681 q 1302 567 1327 600 q 1241 508 1277 532 q 1159 473 1206 484 q 1042 463 1112 463 z "},"Q":{"ha":1002,"x_min":88,"x_max":1095,"o":"m 507 279 l 538 222 q 599 305 576 267 q 637 393 618 340 q 669 507 657 448 q 680 612 680 564 q 646 726 680 683 q 557 769 612 769 q 360 622 444 769 q 294 460 319 552 q 268 298 268 367 q 282 216 268 252 q 321 161 296 180 q 375 140 345 140 q 394 142 383 140 l 368 185 q 350 218 355 207 q 340 243 344 229 q 337 268 337 256 q 361 325 337 301 q 418 349 385 349 q 465 335 446 349 q 507 279 484 321 m 624 72 l 656 16 q 688 -15 669 -8 q 749 -23 707 -23 l 1001 -23 l 1019 -23 q 1075 -40 1056 -23 q 1095 -89 1095 -58 q 1063 -157 1095 -128 q 987 -185 1031 -185 l 969 -185 l 652 -185 q 589 -166 618 -185 q 539 -115 557 -146 l 477 -9 q 366 -28 420 -28 q 163 59 238 -28 q 88 296 88 146 q 128 530 88 406 q 229 736 168 653 q 330 841 275 797 q 452 911 388 886 q 574 935 515 935 q 724 895 660 935 q 824 782 788 856 q 859 610 859 709 q 843 460 859 535 q 793 311 826 385 q 624 72 727 159 z "},"R":{"ha":1372,"x_min":37,"x_max":1744,"o":"m 1075 764 l 972 509 l 991 511 q 1061 519 1036 513 q 1106 540 1083 525 q 1160 597 1141 563 q 1179 671 1179 631 q 1157 740 1179 715 q 1091 764 1134 764 q 1075 764 1080 764 m 1124 382 l 1267 42 q 1338 -24 1295 -24 l 1367 -23 l 1650 -23 l 1668 -23 q 1725 -40 1706 -23 q 1744 -89 1744 -57 q 1730 -136 1744 -115 q 1691 -172 1716 -159 q 1636 -185 1665 -185 l 1618 -185 l 1305 -185 q 1198 -153 1244 -185 q 1126 -63 1151 -121 l 930 408 l 840 185 q 777 33 781 41 q 694 -121 739 -56 q 599 -229 649 -187 q 490 -291 549 -271 q 362 -312 432 -312 q 193 -272 267 -312 q 78 -159 119 -233 q 37 9 37 -87 q 112 260 37 143 q 312 447 186 377 q 581 515 437 515 q 675 494 642 515 q 708 431 708 471 q 675 364 708 385 q 561 338 642 343 q 431 309 492 335 q 324 241 370 283 q 254 142 281 200 q 229 24 229 85 q 269 -90 229 -49 q 376 -133 309 -133 q 515 -64 450 -133 q 594 62 549 -26 q 649 185 623 119 l 884 764 l 814 764 l 796 764 q 720 830 720 764 q 752 897 720 869 q 827 926 784 926 l 846 926 l 1071 926 q 1145 925 1134 926 q 1185 918 1158 924 q 1276 875 1236 907 q 1336 795 1314 844 q 1357 690 1357 749 q 1328 557 1357 621 q 1247 446 1297 492 q 1124 382 1197 401 z "},"S":{"ha":932,"x_min":41,"x_max":1010,"o":"m 540 625 l 703 625 q 804 646 766 625 q 840 705 840 668 q 811 755 840 736 q 734 774 782 774 q 604 728 662 774 q 540 625 545 682 m 689 463 l 621 463 l 684 385 l 720 341 q 797 208 770 276 q 824 70 824 138 q 791 -83 824 -12 q 701 -208 759 -154 q 565 -291 644 -262 q 401 -321 486 -321 q 215 -276 296 -321 q 87 -153 134 -233 q 41 28 41 -74 q 82 195 41 116 q 199 336 121 274 q 353 401 282 401 q 412 380 389 401 q 435 327 435 359 q 382 249 435 281 l 329 216 q 250 134 279 184 q 220 31 220 82 q 245 -64 220 -22 q 313 -130 269 -106 q 410 -155 357 -155 q 527 -123 473 -155 q 611 -37 578 -92 q 642 80 642 17 q 590 224 642 150 q 546 280 568 254 q 515 315 542 286 q 505 327 511 320 q 494 338 498 334 q 402 463 429 410 l 220 463 l 201 463 q 145 481 164 465 q 125 529 125 499 q 157 596 125 568 q 233 625 189 625 l 251 625 l 367 625 q 406 749 374 691 q 490 848 437 805 q 610 913 544 890 q 751 935 676 935 q 886 906 827 935 q 978 825 946 876 q 1010 707 1010 774 q 994 620 1010 662 q 947 546 977 578 q 877 492 918 513 q 830 476 857 482 q 770 467 806 470 q 689 463 732 463 z "},"T":{"ha":1093,"x_min":37,"x_max":1324,"o":"m 1200 764 l 1076 764 l 841 185 q 778 33 808 105 q 725 -75 754 -24 q 667 -161 695 -125 q 529 -275 605 -238 q 363 -312 454 -312 q 128 -224 218 -312 q 37 9 37 -135 q 112 260 37 143 q 312 447 186 377 q 581 515 437 515 q 675 494 642 515 q 708 431 708 471 q 675 364 708 385 q 561 338 642 343 q 431 309 492 335 q 324 241 370 283 q 254 142 281 200 q 229 24 229 85 q 269 -90 229 -47 q 378 -133 310 -133 q 517 -64 452 -133 q 596 62 551 -26 q 651 185 625 119 l 886 764 l 754 764 l 736 764 q 661 830 661 765 q 692 897 661 869 q 767 926 724 926 l 785 926 l 1231 926 l 1249 926 q 1324 860 1324 925 q 1311 812 1324 834 q 1272 777 1297 790 q 1217 764 1246 764 l 1200 764 z "},"U":{"ha":1196,"x_min":120,"x_max":1413,"o":"m 1289 764 l 1198 764 l 982 231 q 942 148 961 181 q 900 84 924 114 q 852 36 876 55 q 666 -26 777 -26 q 536 4 596 -26 q 444 84 477 34 q 410 197 410 136 q 419 273 410 232 q 454 376 429 313 l 526 555 l 552 624 q 568 682 568 663 q 538 747 568 720 q 468 774 509 774 q 384 747 423 774 q 319 673 343 720 q 294 578 294 628 q 362 485 294 513 q 416 456 402 470 q 429 415 429 443 q 401 352 429 378 q 330 326 372 326 q 225 358 275 326 q 148 446 175 391 q 120 568 120 502 q 172 753 120 667 q 310 890 222 839 q 496 941 397 941 q 597 923 548 941 q 677 875 644 906 q 731 803 713 843 q 751 713 751 760 q 715 555 751 640 l 612 301 q 590 212 590 246 q 613 158 590 179 q 672 137 635 137 q 726 151 703 137 q 770 195 749 163 q 814 283 790 226 l 1037 832 q 1069 893 1054 874 q 1106 919 1084 912 q 1173 926 1127 926 l 1320 926 l 1337 926 q 1394 909 1375 926 q 1413 860 1413 892 q 1400 812 1413 834 q 1360 777 1385 790 q 1306 764 1335 764 l 1289 764 z "},"V":{"ha":1195,"x_min":120,"x_max":1426,"o":"m 1301 764 l 1223 764 l 806 61 q 749 -8 777 12 q 683 -28 722 -28 q 633 -17 658 -28 q 598 14 611 -6 q 581 99 582 41 l 570 555 q 566 664 568 640 q 556 706 562 690 q 526 751 546 734 q 477 766 504 766 q 394 739 434 766 q 328 669 353 711 q 303 580 303 625 q 334 509 303 539 q 408 480 363 480 l 467 481 q 517 462 496 481 q 538 416 538 443 q 517 361 538 385 q 457 322 496 336 q 368 308 418 308 q 243 342 300 308 q 153 434 186 375 q 120 562 120 492 q 150 703 120 635 q 233 823 179 770 q 355 905 287 877 q 499 935 425 935 q 637 897 573 935 q 719 804 699 860 q 734 744 729 777 q 742 669 739 720 q 745 555 745 629 l 745 287 l 1073 846 l 1090 876 q 1126 915 1107 905 q 1186 925 1145 924 l 1213 926 l 1333 926 l 1350 926 q 1407 909 1388 926 q 1426 860 1426 892 q 1413 812 1426 834 q 1373 777 1398 790 q 1319 764 1348 764 l 1301 764 z "},"W":{"ha":1636,"x_min":120,"x_max":1868,"o":"m 1742 764 l 1666 764 l 1249 45 q 1198 -15 1226 5 q 1135 -35 1171 -35 q 1058 -2 1086 -35 q 1029 87 1029 31 l 1046 573 l 800 45 q 692 -32 764 -32 q 613 -1 640 -32 q 583 87 585 31 l 570 555 q 555 706 570 667 q 526 750 546 734 q 477 766 505 766 q 394 739 434 766 q 328 669 353 711 q 303 580 303 625 q 334 509 303 538 q 408 480 363 480 l 467 481 q 517 462 496 481 q 538 416 538 443 q 517 361 538 385 q 457 322 496 336 q 368 308 418 308 q 272 328 317 308 q 193 382 226 347 q 139 463 157 417 q 120 561 120 508 q 150 703 120 634 q 233 823 179 770 q 355 905 287 877 q 499 935 425 935 q 728 765 684 935 q 740 690 736 733 q 745 555 743 649 l 749 319 l 990 846 q 1113 935 1032 935 q 1191 907 1162 935 q 1220 833 1220 878 l 1220 825 l 1207 309 l 1512 834 l 1527 861 q 1574 912 1549 898 q 1641 926 1599 926 l 1773 926 l 1792 926 q 1848 909 1829 926 q 1868 860 1868 891 q 1836 792 1868 821 q 1761 764 1805 764 l 1742 764 z "},"X":{"ha":1063,"x_min":120,"x_max":1294,"o":"m 1031 764 l 783 449 l 869 20 q 890 -14 875 -5 q 943 -23 903 -23 l 1200 -23 l 1218 -23 q 1274 -40 1255 -23 q 1294 -89 1294 -58 q 1262 -157 1294 -128 q 1187 -185 1231 -185 l 1168 -185 l 911 -185 l 875 -185 q 787 -172 820 -185 q 735 -127 754 -159 q 705 -40 716 -98 l 644 277 l 446 35 l 431 17 q 385 -24 408 -11 q 335 -37 361 -37 q 278 -14 300 -37 q 255 42 255 9 q 265 81 255 60 q 303 136 274 99 l 597 498 l 572 641 q 471 755 551 755 q 391 728 430 755 q 327 658 349 700 q 302 569 302 614 q 319 514 302 538 q 361 484 334 490 l 395 477 q 442 452 425 471 q 460 406 460 433 q 425 336 460 364 q 340 307 391 307 q 228 340 278 307 q 149 428 178 371 q 120 551 120 484 q 150 692 120 623 q 233 814 179 760 q 353 898 286 867 q 493 928 421 928 q 602 904 552 928 q 682 836 650 880 q 728 730 714 791 l 742 662 l 892 851 q 905 867 896 856 q 913 879 911 876 q 918 884 916 882 q 954 918 939 911 q 1009 926 971 926 l 1152 926 l 1170 926 q 1227 909 1208 926 q 1246 860 1246 892 q 1232 812 1246 834 q 1193 777 1218 790 q 1139 764 1167 764 l 1121 764 l 1031 764 z "},"Y":{"ha":1221,"x_min":120,"x_max":1425,"o":"m 665 -97 l 705 0 q 572 -6 617 -1 q 486 -26 526 -12 q 374 -99 414 -52 q 334 -205 334 -146 q 350 -268 334 -239 q 394 -313 366 -296 q 454 -330 422 -330 q 531 -304 493 -330 q 597 -236 570 -277 q 665 -97 629 -186 m 1299 764 l 1201 764 l 956 162 l 1048 162 l 1067 162 q 1123 145 1104 162 q 1143 96 1143 127 q 1112 28 1143 56 q 1035 0 1080 0 l 1017 0 l 890 0 l 840 -125 q 779 -267 802 -222 q 718 -360 754 -313 q 446 -502 608 -502 q 330 -479 385 -502 q 236 -417 277 -458 q 174 -323 196 -377 q 151 -208 151 -269 q 177 -79 151 -141 q 253 30 202 -20 q 372 111 302 79 q 494 150 433 139 q 663 161 554 159 l 770 162 l 793 218 q 713 201 757 201 q 559 254 618 201 q 511 324 531 281 q 492 409 492 368 q 514 517 492 448 q 552 624 532 574 q 568 686 568 665 q 539 748 568 722 q 471 774 509 774 q 387 746 427 774 q 322 672 346 717 q 297 578 297 627 q 363 485 297 513 q 417 456 404 470 q 429 416 429 444 q 400 352 429 377 q 330 326 371 326 q 225 358 274 326 q 149 446 176 391 q 120 568 120 503 q 172 753 120 667 q 310 890 222 839 q 496 941 397 941 q 596 924 550 941 q 678 875 642 907 q 732 801 713 844 q 751 709 751 759 q 734 608 751 656 q 707 536 730 596 q 683 439 683 472 q 707 386 683 408 q 765 363 730 363 q 866 422 824 363 q 892 465 881 444 q 916 519 904 490 l 1046 842 q 1093 907 1065 888 q 1171 926 1121 926 l 1331 926 l 1349 926 q 1405 909 1386 926 q 1425 860 1425 891 q 1393 792 1425 821 q 1318 764 1362 764 l 1299 764 z "},"Z":{"ha":1038,"x_min":-18,"x_max":998,"o":"m 644 0 l 484 0 q 429 -2 477 0 q 307 -13 341 -6 q 238 -41 271 -20 q 180 -101 200 -65 q 159 -178 159 -136 q 182 -260 159 -222 q 248 -319 206 -298 q 336 -340 289 -340 q 475 -295 409 -340 q 585 -173 541 -251 q 644 0 629 -95 m 928 755 l 639 425 q 764 300 720 366 q 815 162 808 233 l 904 162 l 922 162 q 978 144 958 162 q 998 96 998 127 q 966 28 998 57 q 890 0 935 0 l 872 0 l 822 0 q 743 -254 812 -137 q 564 -439 674 -372 q 328 -507 454 -507 q 151 -463 231 -507 q 26 -345 70 -420 q -18 -175 -18 -269 q 33 3 -18 -77 q 172 123 82 82 q 382 162 260 162 l 633 162 q 505 313 608 258 q 456 342 469 332 q 434 370 441 356 q 427 403 427 383 q 466 478 427 433 l 710 764 l 430 764 l 412 764 q 336 830 336 765 q 368 897 336 869 q 444 926 400 926 l 461 926 l 853 926 q 966 836 966 926 q 928 755 966 800 z "},"[":{"ha":646,"x_min":65,"x_max":850,"o":"m 726 914 l 650 914 l 279 3 l 386 3 l 404 3 q 479 -63 479 2 q 469 -103 479 -82 q 440 -138 457 -125 q 355 -159 414 -159 l 174 -159 q 96 -136 125 -159 q 65 -75 65 -113 q 95 24 65 -51 l 492 991 q 535 1059 513 1042 q 598 1076 556 1076 l 620 1076 l 757 1076 l 775 1076 q 850 1010 850 1075 q 836 962 850 985 q 797 927 822 939 q 743 914 772 914 l 726 914 z "},"\\":{"ha":642,"x_min":208,"x_max":547,"o":"m 411 -6 l 224 844 l 218 875 q 208 938 208 921 q 228 979 208 962 q 275 996 248 996 q 326 969 311 996 q 346 905 334 958 l 542 10 q 547 -24 547 -9 q 530 -67 547 -52 q 486 -82 515 -82 q 411 -6 428 -82 z "},"]":{"ha":646,"x_min":-30,"x_max":756,"o":"m 96 3 l 172 3 l 543 914 l 435 914 l 417 914 q 342 980 342 916 q 381 1055 342 1025 q 467 1076 407 1076 l 648 1076 q 727 1053 698 1076 q 756 991 756 1030 q 726 892 756 966 l 330 -74 q 301 -127 315 -110 q 270 -152 288 -145 q 222 -159 251 -159 l 201 -159 l 64 -159 l 46 -159 q -30 -93 -30 -158 q -15 -45 -30 -66 q 24 -9 -1 -23 q 78 3 47 3 l 96 3 z "},"^":{"ha":555,"x_min":46,"x_max":509,"o":"m 56 916 l 56 9 l 500 9 l 500 916 l 56 916 m 509 0 l 46 0 l 46 926 l 509 926 l 509 0 z "},"_":{"ha":694,"x_min":0,"x_max":694,"o":"m 0 -301 l 0 -185 l 694 -185 l 694 -301 l 0 -301 z "},"`":{"ha":387,"x_min":93,"x_max":294,"o":"m 258 747 l 286 683 q 294 646 294 664 q 282 618 294 630 q 253 606 269 606 q 210 623 233 606 l 130 683 q 100 710 108 699 q 93 738 93 722 q 108 773 93 760 q 144 787 123 787 l 194 787 q 235 779 222 787 q 258 747 250 768 z "},"a":{"ha":649,"x_min":18,"x_max":641,"o":"m 322 182 l 373 307 l 378 317 q 383 342 383 332 q 366 377 383 363 q 322 391 347 391 q 271 376 297 391 q 224 332 245 359 q 191 275 202 304 q 178 212 178 243 q 193 163 178 180 q 235 144 208 144 l 261 144 q 297 157 276 144 q 322 182 317 170 m 579 389 l 481 148 l 555 148 l 572 148 q 641 87 641 147 q 612 26 641 52 q 543 0 583 0 l 526 0 l 439 0 q 391 11 408 0 q 361 45 372 22 l 349 35 q 308 8 327 17 q 262 0 289 0 l 181 0 q 64 54 109 0 q 18 194 18 108 q 60 355 18 277 q 170 480 102 433 q 312 528 237 528 q 438 468 399 528 q 526 518 472 518 q 576 500 556 518 q 597 455 597 481 q 579 389 597 434 z "},"b":{"ha":602,"x_min":5,"x_max":584,"o":"m 264 298 l 219 186 q 255 153 239 161 q 302 144 271 144 q 334 149 323 144 q 359 168 345 153 q 410 243 390 198 q 431 326 431 288 q 414 375 431 356 q 368 393 397 393 q 311 368 339 393 q 264 298 283 342 m 467 795 l 354 518 q 407 528 386 528 q 499 501 458 528 q 562 426 540 475 q 584 315 584 375 q 454 42 584 146 q 342 0 402 0 l 283 0 q 219 11 245 0 q 163 48 192 22 q 128 13 152 26 q 77 0 105 0 q 26 19 45 0 q 5 64 5 37 q 15 112 5 87 l 22 130 l 307 831 l 315 849 q 414 926 347 926 q 464 907 445 926 q 484 862 484 889 q 467 795 484 838 z "},"c":{"ha":530,"x_min":18,"x_max":521,"o":"m 422 0 l 406 0 l 210 0 q 111 28 155 0 q 43 104 66 56 q 18 215 18 153 q 59 370 18 297 q 167 486 99 443 q 312 528 234 528 q 442 483 393 528 q 492 366 492 437 q 480 308 492 334 q 448 267 468 281 q 401 252 427 252 q 357 269 375 252 q 340 309 340 285 l 340 341 q 328 374 340 361 q 296 387 316 387 q 215 340 252 387 q 178 238 178 294 q 189 189 178 210 q 218 160 199 168 q 307 148 250 148 l 435 148 l 452 148 q 521 87 521 147 q 492 26 521 51 q 422 0 462 0 z "},"d":{"ha":656,"x_min":18,"x_max":768,"o":"m 322 182 l 374 307 l 378 317 q 383 342 383 332 q 366 377 383 363 q 322 391 347 391 q 255 363 289 391 q 200 292 222 336 q 178 205 178 248 q 235 144 178 144 l 266 144 q 299 156 281 144 q 322 182 317 168 m 750 805 l 483 148 l 560 148 l 577 148 q 629 133 611 148 q 646 87 646 117 q 617 26 646 51 q 548 0 587 0 l 532 0 l 441 0 q 363 43 387 0 q 284 0 321 0 l 175 0 q 63 54 108 0 q 18 187 18 108 q 43 314 18 252 q 107 423 66 375 q 201 499 147 471 q 309 528 254 528 q 439 469 390 528 l 590 840 l 597 859 q 698 935 631 935 q 748 917 728 935 q 768 871 768 899 q 758 823 768 851 l 750 805 z "},"e":{"ha":553,"x_min":18,"x_max":544,"o":"m 213 322 l 288 322 q 358 353 358 322 q 345 379 358 368 q 313 389 332 389 q 213 322 249 389 m 316 199 l 180 199 q 257 148 182 148 l 458 148 l 475 148 q 544 87 544 147 q 515 26 544 52 q 446 0 486 0 l 429 0 l 237 0 q 155 8 185 0 q 98 35 125 16 q 39 109 59 64 q 18 210 18 153 q 60 368 18 296 q 170 484 100 441 q 320 528 239 528 q 421 507 378 528 q 490 446 466 485 q 514 357 514 407 q 490 272 514 310 q 424 216 465 233 q 380 203 399 205 q 316 199 359 199 z "},"f":{"ha":514,"x_min":-148,"x_max":736,"o":"m 456 675 l 392 518 l 486 518 l 502 518 q 572 458 572 517 q 543 396 572 421 q 473 370 513 370 l 457 370 l 332 370 l 28 -380 l 20 -398 q -79 -474 -12 -474 q -127 -455 -109 -474 q -148 -410 -148 -437 q -145 -386 -148 -396 q -130 -345 -142 -373 l 159 370 l 114 370 l 97 370 q 28 431 28 372 q 57 493 28 468 q 126 518 85 518 l 142 518 l 220 518 l 306 731 q 410 880 347 834 q 572 926 470 926 l 650 926 l 667 926 q 736 865 736 925 q 707 802 736 827 q 637 776 677 776 l 621 776 l 601 776 q 511 753 543 776 q 456 675 479 730 z "},"g":{"ha":595,"x_min":-218,"x_max":605,"o":"m 186 -167 l 69 -167 q -25 -193 9 -167 q -59 -264 -59 -218 q -35 -319 -59 -297 q 22 -341 -12 -341 q 130 -275 79 -341 q 186 -167 153 -243 m 329 184 l 384 318 q 391 347 391 338 q 374 380 391 367 q 330 394 355 394 q 264 368 298 394 q 211 301 231 342 q 190 219 190 260 q 256 148 190 148 q 302 159 281 148 q 329 184 323 171 m 587 399 l 417 -18 l 498 -18 l 515 -18 q 585 -79 585 -20 q 555 -141 585 -116 q 486 -167 526 -167 l 470 -167 l 357 -167 l 329 -237 q 249 -380 292 -327 q 150 -463 205 -435 q 25 -490 93 -490 q -98 -460 -42 -490 q -186 -379 -155 -431 q -218 -264 -218 -327 q -200 -178 -218 -220 q -150 -102 -183 -136 q -74 -49 -119 -70 q 2 -25 -36 -32 q 101 -18 40 -18 l 247 -18 l 268 34 q 225 14 241 19 q 186 8 208 8 q 71 58 117 8 q 24 185 24 109 q 49 312 24 251 q 116 422 73 373 q 212 500 160 474 q 321 528 264 528 q 395 515 365 528 q 446 473 425 502 q 534 528 475 528 q 585 510 564 528 q 605 465 605 492 q 587 399 605 444 z "},"h":{"ha":707,"x_min":18,"x_max":700,"o":"m 487 806 l 358 489 q 425 521 407 515 q 477 528 445 528 q 551 511 518 528 q 604 467 585 495 q 623 401 623 437 q 608 326 623 365 l 536 148 l 614 148 l 630 148 q 700 87 700 147 q 671 26 700 51 q 602 0 641 0 l 585 0 l 448 0 q 376 25 404 0 q 347 89 347 50 q 355 131 347 113 l 361 148 l 424 301 q 435 345 435 330 q 421 373 435 362 q 385 384 408 384 q 267 266 315 384 l 191 80 l 184 62 q 86 -13 153 -13 q 38 5 58 -13 q 18 50 18 23 q 28 96 18 71 l 36 114 l 331 841 q 359 895 344 873 q 393 925 374 916 q 436 934 410 934 q 485 916 465 934 q 504 871 504 898 q 494 825 504 850 l 487 806 z "},"i":{"ha":378,"x_min":18,"x_max":392,"o":"m 297 547 q 250 560 271 547 q 216 595 228 572 q 203 642 203 616 q 231 708 203 680 q 296 736 258 736 q 345 723 323 736 q 379 688 366 710 q 392 640 392 667 q 365 575 392 602 q 297 547 337 547 m 304 388 l 207 148 l 283 148 l 300 148 q 369 87 369 147 q 340 26 369 52 q 271 0 311 0 l 255 0 l 146 0 q 52 24 86 0 q 18 92 18 49 q 33 148 18 113 l 144 423 l 152 441 q 252 518 184 518 q 302 500 283 518 q 321 453 321 481 q 312 406 321 431 l 304 388 z "},"j":{"ha":408,"x_min":-426,"x_max":481,"o":"m -16 -176 l -111 -176 q -227 -200 -188 -176 q -266 -275 -266 -225 q -243 -329 -266 -308 q -189 -351 -222 -351 q -74 -280 -124 -351 q -16 -176 -47 -244 m 384 370 l 218 -28 l 292 -28 l 309 -28 q 361 -43 342 -28 q 378 -88 378 -60 q 349 -150 378 -125 q 280 -176 319 -176 l 264 -176 l 158 -176 l 110 -273 l 90 -313 q -179 -500 -5 -500 q -304 -470 -248 -500 q -393 -389 -361 -440 q -426 -274 -426 -338 q -391 -153 -426 -211 q -302 -66 -355 -94 q -96 -28 -229 -28 l 45 -28 l 199 352 l 125 352 l 109 352 q 39 413 39 354 q 68 475 39 450 q 138 500 96 500 l 155 500 l 316 500 q 377 481 355 500 q 399 429 399 463 q 384 370 399 403 m 387 547 q 321 575 349 547 q 293 642 293 603 q 306 689 293 667 q 340 724 319 711 q 386 736 362 736 q 434 723 413 736 q 469 688 456 710 q 481 640 481 667 q 454 575 481 602 q 387 547 427 547 z "},"k":{"ha":612,"x_min":18,"x_max":612,"o":"m 546 361 l 446 287 l 550 122 q 570 71 570 91 q 545 16 570 41 q 486 -8 518 -8 q 435 22 455 -8 l 428 33 l 271 269 l 195 81 q 150 9 176 31 q 87 -13 125 -13 q 38 5 58 -13 q 18 52 18 24 q 28 98 18 73 l 36 116 l 326 831 l 334 850 q 433 926 366 926 q 483 907 464 926 q 503 861 503 889 q 492 814 503 842 l 485 796 l 312 370 l 464 484 q 510 513 489 503 q 545 521 528 521 q 593 502 574 521 q 612 455 612 483 q 598 409 612 429 q 546 361 585 389 z "},"l":{"ha":380,"x_min":18,"x_max":488,"o":"m 470 797 l 207 148 l 278 148 l 294 148 q 363 87 363 147 q 335 26 363 52 q 266 0 305 0 l 249 0 l 127 0 q 48 23 77 0 q 18 83 18 45 q 39 158 18 113 l 313 831 l 319 850 q 419 926 352 926 q 468 907 449 926 q 488 862 488 889 q 477 815 488 841 l 470 797 z "},"m":{"ha":1023,"x_min":18,"x_max":1014,"o":"m 920 327 l 848 148 l 928 148 l 945 148 q 1014 87 1014 147 q 985 26 1014 51 q 916 0 955 0 l 899 0 l 762 0 q 690 24 720 0 q 662 83 662 47 q 680 158 662 113 l 743 313 q 749 338 749 328 q 736 370 749 359 q 703 382 724 382 q 635 351 668 382 q 581 269 601 319 l 505 82 q 460 10 484 31 q 399 -12 435 -12 q 350 7 370 -12 q 330 52 330 25 q 340 98 330 73 l 348 117 l 425 306 q 434 346 434 330 q 421 372 434 361 q 388 382 408 382 q 324 353 355 382 q 273 277 291 322 l 193 82 l 186 64 q 87 -12 155 -12 q 38 7 58 -12 q 18 52 18 25 q 28 98 18 73 l 36 117 l 171 449 q 206 503 186 486 q 256 519 226 519 q 330 463 314 519 q 405 515 376 503 q 476 528 433 528 q 557 510 525 528 q 611 449 587 492 q 692 507 647 487 q 781 528 736 528 q 891 491 848 528 q 935 397 935 454 q 920 327 935 363 z "},"n":{"ha":711,"x_min":18,"x_max":701,"o":"m 608 330 l 534 148 l 615 148 l 631 148 q 701 87 701 147 q 672 26 701 51 q 603 0 642 0 l 587 0 l 445 0 q 376 25 404 0 q 347 86 347 51 q 366 157 347 113 l 426 305 q 436 343 436 330 q 422 371 436 359 q 388 382 410 382 q 311 338 346 382 q 275 277 289 309 l 195 80 l 188 62 q 146 5 171 24 q 87 -14 121 -14 q 39 4 58 -14 q 18 50 18 22 q 28 97 18 72 l 36 115 l 173 453 q 264 519 199 519 q 338 472 317 519 q 408 515 377 503 q 475 528 439 528 q 581 491 539 528 q 623 399 623 454 q 608 330 623 367 z "},"o":{"ha":575,"x_min":18,"x_max":557,"o":"m 395 300 q 374 360 395 336 q 317 383 351 383 q 252 361 283 383 q 201 301 221 338 q 182 223 182 265 q 267 146 182 146 q 334 163 312 146 q 378 223 359 183 q 395 300 395 264 m 252 -1 q 162 5 191 -1 q 109 26 134 10 q 43 106 66 58 q 18 212 18 155 q 43 333 18 276 q 111 434 68 391 q 210 503 153 477 q 328 528 264 528 q 420 512 378 528 q 492 467 462 497 q 540 397 523 438 q 557 307 557 356 q 539 202 557 257 q 489 104 521 149 q 416 34 457 60 q 374 14 394 20 q 326 3 350 5 q 252 -1 295 -1 z "},"p":{"ha":629,"x_min":-162,"x_max":611,"o":"m 288 300 l 243 191 q 264 163 254 173 q 287 149 274 153 q 317 144 299 144 l 326 144 q 370 152 353 144 q 400 180 385 160 q 439 254 423 210 q 454 328 454 299 q 438 378 454 361 q 391 395 422 395 q 319 363 349 395 q 316 360 317 361 q 314 358 315 359 q 311 352 311 354 q 306 342 309 351 q 302 333 305 339 q 297 323 299 327 l 288 300 m 188 53 l 11 -382 q -33 -453 -9 -431 q -94 -475 -57 -475 q -142 -456 -123 -475 q -162 -412 -162 -439 q -152 -366 -162 -389 l -144 -348 l 182 458 q 269 518 208 518 q 308 509 292 518 q 336 477 323 498 q 454 528 385 528 q 537 503 502 528 q 592 433 573 477 q 611 329 611 389 q 579 171 611 248 q 494 47 548 95 q 431 10 465 20 q 335 -1 398 -1 q 263 3 288 -1 q 222 18 238 7 q 188 53 206 30 z "},"q":{"ha":553,"x_min":18,"x_max":535,"o":"m 323 179 l 370 294 q 374 309 372 301 q 377 332 377 330 q 359 367 377 353 q 313 380 342 380 q 254 355 283 380 q 204 293 223 330 q 184 216 184 254 q 203 167 184 184 q 256 149 223 149 q 297 159 274 149 q 323 179 319 168 m 509 225 l 285 -327 l 360 -327 l 376 -327 q 446 -388 446 -328 q 417 -450 446 -425 q 348 -476 387 -476 l 331 -476 l 205 -476 q 132 -452 160 -476 q 102 -392 102 -429 q 121 -317 102 -362 l 262 29 q 177 -1 227 -1 q 97 22 135 -1 q 39 87 60 45 q 18 178 18 127 q 44 311 18 242 q 115 431 68 378 q 210 503 155 477 q 325 528 264 528 q 477 475 418 528 q 535 340 535 422 q 509 225 535 290 z "},"r":{"ha":571,"x_min":14,"x_max":557,"o":"m 260 370 l 189 370 l 166 313 q 131 255 149 272 q 84 237 111 237 q 35 256 54 237 q 14 300 14 275 q 29 354 14 315 l 106 543 q 139 595 121 581 q 184 611 157 611 q 246 564 235 611 l 251 543 q 258 526 254 531 q 271 520 262 521 q 303 518 279 518 l 462 518 l 479 518 q 551 456 551 517 q 536 410 551 434 q 503 378 521 386 q 438 370 487 372 l 431 363 q 357 280 384 319 q 323 205 323 233 q 340 163 323 179 q 385 148 357 148 l 471 148 l 488 148 q 557 87 557 147 q 528 26 557 52 q 459 0 498 0 l 442 0 l 309 0 q 258 9 299 0 q 184 66 212 22 q 156 168 156 110 q 180 262 156 215 q 260 370 205 309 z "},"s":{"ha":496,"x_min":14,"x_max":464,"o":"m 284 275 l 254 334 l 241 302 q 157 236 211 236 q 107 256 129 236 q 85 298 85 275 q 104 362 85 325 l 195 545 q 231 594 212 579 q 277 610 251 610 q 322 593 303 610 q 341 554 341 576 q 337 526 341 546 q 334 498 334 508 q 367 412 334 458 l 406 359 q 464 204 464 276 q 438 107 464 155 q 368 32 412 60 q 293 6 346 18 q 251 0 262 0 l 100 0 l 83 0 q 31 17 50 1 q 14 60 14 33 q 43 123 14 98 q 112 148 71 148 l 128 148 l 208 148 q 302 218 302 148 q 284 275 302 240 z "},"t":{"ha":422,"x_min":23,"x_max":464,"o":"m 382 572 l 357 518 l 378 518 l 394 518 q 464 458 464 517 q 435 396 464 421 q 366 370 405 370 l 349 370 l 300 370 l 209 148 l 285 148 l 301 148 q 371 87 371 147 q 342 26 371 51 q 273 0 312 0 l 256 0 l 136 0 q 54 24 85 0 q 23 89 23 47 q 35 144 23 115 l 48 174 l 128 370 q 42 431 42 370 q 71 493 42 468 q 140 518 99 518 l 157 518 l 188 518 l 224 607 l 231 625 q 330 701 265 701 q 366 692 351 701 q 390 669 381 684 q 399 638 399 654 q 382 572 399 609 z "},"u":{"ha":711,"x_min":27,"x_max":669,"o":"m 603 389 l 505 148 l 584 148 l 600 148 q 669 87 669 147 q 641 26 669 52 q 572 0 611 0 l 555 0 l 425 0 q 386 12 404 0 q 358 44 368 24 q 266 0 320 0 l 156 0 q 120 7 142 0 q 83 23 96 15 q 43 69 59 39 q 27 130 27 100 q 45 208 27 165 l 137 434 q 182 507 157 484 q 243 528 205 528 q 292 509 273 528 q 312 464 312 491 q 302 417 312 443 l 294 399 l 223 224 l 216 204 q 208 177 208 184 q 219 156 208 165 q 247 147 230 147 q 296 153 282 147 q 358 211 340 170 l 444 424 q 490 496 466 475 q 552 518 515 518 q 601 500 582 518 q 621 454 621 481 q 603 389 621 432 z "},"v":{"ha":517,"x_min":56,"x_max":550,"o":"m 239 421 l 220 238 l 377 453 l 389 471 q 479 528 428 528 q 508 522 494 528 q 530 508 522 517 q 545 486 540 499 q 550 456 550 471 q 509 370 550 424 l 258 45 q 213 5 239 20 q 161 -11 185 -11 q 111 3 136 -11 q 72 38 85 17 q 56 119 56 64 q 56 136 56 132 l 81 406 q 97 472 83 452 q 133 506 110 493 q 179 519 156 519 q 224 501 207 519 q 241 454 241 484 q 239 421 241 437 z "},"w":{"ha":842,"x_min":56,"x_max":874,"o":"m 563 422 l 544 252 l 703 459 q 753 512 734 498 q 803 526 775 526 q 840 517 824 526 q 865 493 857 508 q 874 457 874 477 q 845 390 874 425 l 832 374 l 578 54 q 528 7 555 25 q 479 -11 500 -11 q 400 22 431 -11 q 370 105 370 55 q 372 130 370 119 l 394 252 l 256 54 q 160 -11 212 -11 q 85 25 115 -11 q 56 115 56 60 q 56 130 56 126 l 75 414 l 77 431 q 107 500 81 473 q 172 528 134 528 q 219 510 203 528 q 235 458 235 493 q 234 433 235 454 l 215 243 l 366 458 q 417 509 387 489 q 477 528 447 528 q 542 506 519 528 q 564 442 564 483 q 563 422 564 427 z "},"x":{"ha":528,"x_min":14,"x_max":551,"o":"m 272 471 l 308 384 l 385 470 q 435 517 415 504 q 479 529 456 529 q 517 520 500 529 q 543 494 534 511 q 551 456 551 477 q 540 414 551 433 q 497 363 528 393 l 381 249 l 438 117 l 444 104 q 451 70 451 87 q 424 13 451 38 q 363 -13 396 -13 q 329 -2 342 -13 q 302 39 316 9 l 259 132 l 180 47 l 165 33 q 85 -9 125 -9 q 35 11 55 -9 q 14 62 14 30 q 24 100 14 81 q 66 151 37 121 l 186 274 l 134 395 q 121 444 121 426 q 149 502 121 477 q 209 528 176 528 q 246 516 233 528 q 272 471 258 505 z "},"y":{"ha":633,"x_min":-195,"x_max":628,"o":"m 220 -176 l 125 -176 q 9 -200 47 -176 q -31 -275 -31 -225 q -8 -329 -31 -308 q 47 -351 14 -351 q 161 -280 111 -351 q 220 -176 186 -245 m 610 388 l 442 -28 l 520 -28 l 537 -28 q 588 -43 569 -28 q 606 -88 606 -60 q 578 -150 606 -125 q 508 -176 548 -176 l 492 -176 l 382 -176 q 356 -239 372 -207 q 298 -354 323 -312 q 251 -417 273 -395 q 50 -500 167 -500 q -75 -470 -19 -500 q -163 -389 -132 -440 q -195 -274 -195 -336 q -174 -181 -195 -225 q -118 -103 -155 -137 q -35 -53 -83 -71 q 157 -28 31 -28 l 267 -28 l 288 21 q 194 -3 237 -3 q 77 35 123 -3 q 32 132 32 72 q 61 241 32 170 l 135 423 q 181 496 157 476 q 243 518 206 518 q 294 500 273 518 q 313 454 313 481 q 296 387 313 433 l 230 225 q 213 172 213 186 q 225 150 213 158 q 256 142 237 142 q 318 160 286 142 q 360 201 351 178 l 451 423 l 458 441 q 500 498 474 479 q 559 518 526 518 q 608 500 589 518 q 628 453 628 481 q 618 406 628 430 l 610 388 z "},"z":{"ha":560,"x_min":18,"x_max":542,"o":"m 499 355 l 284 148 l 455 148 l 471 148 q 541 87 541 147 q 512 26 541 52 q 443 0 482 0 l 426 0 l 110 0 q 43 22 68 0 q 18 79 18 43 q 64 157 18 113 l 286 370 l 210 368 l 198 368 q 191 367 196 367 q 120 429 120 367 q 149 492 120 467 q 220 518 178 518 l 237 518 l 448 518 q 518 498 495 518 q 542 439 542 477 q 499 355 542 397 z "},"{":{"ha":555,"x_min":46,"x_max":509,"o":"m 56 916 l 56 9 l 500 9 l 500 916 l 56 916 m 509 0 l 46 0 l 46 926 l 509 926 l 509 0 z "},"|":{"ha":555,"x_min":46,"x_max":509,"o":"m 56 916 l 56 9 l 500 9 l 500 916 l 56 916 m 509 0 l 46 0 l 46 926 l 509 926 l 509 0 z "},"}":{"ha":555,"x_min":46,"x_max":509,"o":"m 56 916 l 56 9 l 500 9 l 500 916 l 56 916 m 509 0 l 46 0 l 46 926 l 509 926 l 509 0 z "},"~":{"ha":555,"x_min":46,"x_max":509,"o":"m 56 916 l 56 9 l 500 9 l 500 916 l 56 916 m 509 0 l 46 0 l 46 926 l 509 926 l 509 0 z "},"Ä":{"ha":555,"x_min":46,"x_max":509,"o":"m 56 916 l 56 9 l 500 9 l 500 916 l 56 916 m 509 0 l 46 0 l 46 926 l 509 926 l 509 0 z "},"Å":{"ha":555,"x_min":46,"x_max":509,"o":"m 56 916 l 56 9 l 500 9 l 500 916 l 56 916 m 509 0 l 46 0 l 46 926 l 509 926 l 509 0 z "},"Ç":{"ha":825,"x_min":46,"x_max":950,"o":"m 473 625 l 605 625 q 741 654 703 625 q 773 716 773 680 q 751 762 773 744 q 696 780 730 780 q 565 723 633 780 q 473 625 511 678 m 821 -185 l 583 -185 l 556 -240 q 626 -270 601 -246 q 650 -333 650 -294 q 614 -410 650 -379 q 522 -442 576 -442 q 446 -421 477 -442 q 413 -372 413 -400 q 423 -346 413 -357 q 449 -335 433 -335 q 469 -341 461 -335 l 482 -351 q 518 -363 499 -363 q 546 -355 535 -363 q 556 -334 556 -347 q 544 -307 556 -319 q 512 -295 532 -296 l 487 -294 q 465 -277 465 -293 q 468 -260 465 -265 l 500 -185 l 428 -185 l 405 -185 q 245 -144 315 -185 q 135 -28 175 -102 q 96 138 96 46 q 114 285 96 211 q 178 463 132 359 l 140 463 l 122 463 q 46 529 46 464 q 78 596 46 568 q 153 625 110 625 l 172 625 l 270 625 q 434 821 332 728 q 717 940 566 940 q 812 924 769 940 q 886 878 856 906 q 933 809 916 848 q 950 721 950 769 q 928 623 950 671 q 865 541 904 574 q 752 484 814 498 q 549 463 661 463 l 372 463 q 304 307 328 384 q 281 161 281 233 q 300 55 281 96 q 364 -4 319 16 q 476 -23 407 -23 l 853 -23 l 871 -23 q 947 -89 947 -25 q 933 -136 947 -115 q 894 -172 919 -159 q 840 -185 868 -185 l 821 -185 z "},"É":{"ha":555,"x_min":46,"x_max":509,"o":"m 56 916 l 56 9 l 500 9 l 500 916 l 56 916 m 509 0 l 46 0 l 46 926 l 509 926 l 509 0 z "},"Ñ":{"ha":555,"x_min":46,"x_max":509,"o":"m 56 916 l 56 9 l 500 9 l 500 916 l 56 916 m 509 0 l 46 0 l 46 926 l 509 926 l 509 0 z "},"Ö":{"ha":555,"x_min":46,"x_max":509,"o":"m 56 916 l 56 9 l 500 9 l 500 916 l 56 916 m 509 0 l 46 0 l 46 926 l 509 926 l 509 0 z "},"Ü":{"ha":555,"x_min":46,"x_max":509,"o":"m 56 916 l 56 9 l 500 9 l 500 916 l 56 916 m 509 0 l 46 0 l 46 926 l 509 926 l 509 0 z "},"á":{"ha":649,"x_min":18,"x_max":641,"o":"m 322 182 l 373 307 l 378 317 q 383 342 383 332 q 366 377 383 363 q 322 391 347 391 q 271 376 297 391 q 224 332 245 359 q 191 275 202 304 q 178 212 178 243 q 193 163 178 180 q 235 144 208 144 l 261 144 q 297 157 276 144 q 322 182 317 170 m 579 389 l 481 148 l 555 148 l 572 148 q 641 87 641 147 q 612 26 641 52 q 543 0 583 0 l 526 0 l 439 0 q 391 11 408 0 q 361 45 372 22 l 349 35 q 308 8 327 17 q 262 0 289 0 l 181 0 q 64 54 109 0 q 18 194 18 108 q 60 355 18 277 q 170 480 102 433 q 312 528 237 528 q 438 468 399 528 q 526 518 472 518 q 576 500 556 518 q 597 455 597 481 q 579 389 597 434 m 519 693 l 435 626 q 385 603 406 603 q 355 616 368 603 q 341 646 341 630 q 343 658 341 653 l 349 671 l 375 741 q 398 775 384 766 q 436 785 412 785 l 476 785 q 526 774 511 785 q 541 736 541 763 q 519 693 541 711 z "},"à":{"ha":649,"x_min":18,"x_max":641,"o":"m 322 182 l 373 307 l 378 317 q 383 342 383 332 q 366 377 383 363 q 322 391 347 391 q 271 376 297 391 q 224 332 245 359 q 191 275 202 304 q 178 212 178 243 q 193 163 178 180 q 235 144 208 144 l 261 144 q 297 157 276 144 q 322 182 317 170 m 579 389 l 481 148 l 555 148 l 572 148 q 641 87 641 147 q 612 26 641 52 q 543 0 583 0 l 526 0 l 439 0 q 391 11 408 0 q 361 45 372 22 l 349 35 q 308 8 327 17 q 262 0 289 0 l 181 0 q 64 54 109 0 q 18 194 18 108 q 60 355 18 277 q 170 480 102 433 q 312 528 237 528 q 438 468 399 528 q 526 518 472 518 q 576 500 556 518 q 597 455 597 481 q 579 389 597 434 m 377 747 l 405 683 q 413 646 413 664 q 401 618 413 630 q 372 606 388 606 q 329 623 352 606 l 248 683 q 219 710 227 699 q 212 738 212 722 q 227 773 212 760 q 262 787 242 787 l 313 787 q 354 779 341 787 q 377 747 368 768 z "},"â":{"ha":649,"x_min":18,"x_max":641,"o":"m 322 182 l 373 307 l 378 317 q 383 342 383 332 q 366 377 383 363 q 322 391 347 391 q 271 376 297 391 q 224 332 245 359 q 191 275 202 304 q 178 212 178 243 q 193 163 178 180 q 235 144 208 144 l 261 144 q 297 157 276 144 q 322 182 317 170 m 579 389 l 481 148 l 555 148 l 572 148 q 641 87 641 147 q 612 26 641 52 q 543 0 583 0 l 526 0 l 439 0 q 391 11 408 0 q 361 45 372 22 l 349 35 q 308 8 327 17 q 262 0 289 0 l 181 0 q 64 54 109 0 q 18 194 18 108 q 60 355 18 277 q 170 480 102 433 q 312 528 237 528 q 438 468 399 528 q 526 518 472 518 q 576 500 556 518 q 597 455 597 481 q 579 389 597 434 m 509 635 l 469 671 l 389 627 q 330 606 353 606 q 294 624 310 606 q 278 662 278 642 q 292 701 278 684 q 336 734 304 718 l 415 776 q 482 798 456 798 q 518 781 499 798 q 524 778 521 780 q 527 774 526 776 q 532 770 532 770 l 587 724 q 621 663 621 697 q 605 623 621 639 q 563 607 588 607 q 551 608 553 607 q 541 612 547 609 q 529 619 533 616 q 522 625 528 621 q 509 635 517 629 z "},"ä":{"ha":649,"x_min":18,"x_max":645,"o":"m 322 182 l 373 307 l 378 317 q 383 342 383 332 q 366 377 383 363 q 322 391 347 391 q 271 376 297 391 q 224 332 245 359 q 191 275 202 304 q 178 212 178 243 q 193 163 178 180 q 235 144 208 144 l 261 144 q 297 157 276 144 q 322 182 317 170 m 579 389 l 481 148 l 555 148 l 572 148 q 641 87 641 147 q 612 26 641 52 q 543 0 583 0 l 526 0 l 439 0 q 391 11 408 0 q 361 45 372 22 l 349 35 q 308 8 327 17 q 262 0 289 0 l 181 0 q 64 54 109 0 q 18 194 18 108 q 60 355 18 277 q 170 480 102 433 q 312 528 237 528 q 438 468 399 528 q 526 518 472 518 q 576 500 556 518 q 597 455 597 481 q 579 389 597 434 m 294 606 q 229 634 256 606 q 202 700 202 661 q 229 764 202 738 q 294 790 256 790 q 359 764 333 790 q 386 699 386 737 q 359 634 386 662 q 294 606 332 606 m 553 606 q 488 633 514 606 q 461 700 461 661 q 489 764 461 738 q 553 790 517 790 q 618 764 592 790 q 645 699 645 737 q 618 634 645 662 q 553 606 591 606 z "},"ã":{"ha":649,"x_min":18,"x_max":641,"o":"m 322 182 l 373 307 l 378 317 q 383 342 383 332 q 366 377 383 363 q 322 391 347 391 q 271 376 297 391 q 224 332 245 359 q 191 275 202 304 q 178 212 178 243 q 193 163 178 180 q 235 144 208 144 l 261 144 q 297 157 276 144 q 322 182 317 170 m 579 389 l 481 148 l 555 148 l 572 148 q 641 87 641 147 q 612 26 641 52 q 543 0 583 0 l 526 0 l 439 0 q 391 11 408 0 q 361 45 372 22 l 349 35 q 308 8 327 17 q 262 0 289 0 l 181 0 q 64 54 109 0 q 18 194 18 108 q 60 355 18 277 q 170 480 102 433 q 312 528 237 528 q 438 468 399 528 q 526 518 472 518 q 576 500 556 518 q 597 455 597 481 q 579 389 597 434 m 587 686 l 548 642 q 485 612 522 612 q 418 640 452 612 q 392 656 399 656 q 370 644 382 656 q 311 616 342 616 q 273 632 289 616 q 258 671 258 648 q 280 722 258 692 l 307 755 q 382 794 338 794 q 439 771 406 794 l 461 757 q 477 751 471 751 q 494 760 486 751 l 510 776 q 544 790 524 790 q 589 774 570 790 q 606 735 606 758 q 587 686 606 709 z "},"å":{"ha":649,"x_min":18,"x_max":641,"o":"m 322 182 l 373 307 l 378 317 q 383 342 383 332 q 366 377 383 363 q 322 391 347 391 q 271 376 297 391 q 224 332 245 359 q 191 275 202 304 q 178 212 178 243 q 193 163 178 180 q 235 144 208 144 l 261 144 q 297 157 276 144 q 322 182 317 170 m 579 389 l 481 148 l 555 148 l 572 148 q 641 87 641 147 q 612 26 641 52 q 543 0 583 0 l 526 0 l 439 0 q 391 11 408 0 q 361 45 372 22 l 349 35 q 308 8 327 17 q 262 0 289 0 l 181 0 q 64 54 109 0 q 18 194 18 108 q 60 355 18 277 q 170 480 102 433 q 312 528 237 528 q 438 468 399 528 q 526 518 472 518 q 576 500 556 518 q 597 455 597 481 q 579 389 597 434 m 414 661 q 446 673 433 661 q 459 706 459 687 q 446 738 459 725 q 414 751 433 751 q 382 738 395 751 q 368 707 368 724 q 382 674 368 688 q 414 661 395 661 m 414 583 q 352 600 379 583 q 307 646 323 616 q 291 707 291 674 q 308 768 291 741 q 353 812 324 796 q 414 829 381 829 q 475 812 447 829 q 520 768 504 795 q 536 706 536 739 q 520 645 536 673 q 475 600 503 616 q 414 583 448 583 z "},"ç":{"ha":530,"x_min":18,"x_max":521,"o":"m 406 0 l 321 0 l 296 -52 q 362 -80 340 -58 q 385 -140 385 -103 q 350 -214 385 -184 q 263 -243 314 -243 q 213 -234 237 -243 q 174 -210 189 -225 q 160 -178 160 -195 q 170 -152 160 -163 q 195 -142 180 -142 q 213 -148 206 -142 l 225 -157 q 260 -170 243 -170 q 286 -161 275 -170 q 296 -140 296 -153 q 284 -115 296 -125 q 254 -104 272 -104 l 230 -103 q 209 -87 209 -102 q 212 -71 209 -79 l 243 0 l 210 0 q 111 27 155 0 q 43 104 67 55 q 18 216 18 155 q 59 371 18 299 q 167 486 98 443 q 312 528 234 528 q 442 483 393 528 q 492 365 492 437 q 467 285 492 316 q 401 252 441 252 q 357 269 375 252 q 340 309 340 285 l 340 341 q 328 374 340 362 q 295 387 315 387 q 239 366 267 387 q 195 310 212 345 q 178 237 178 276 q 199 174 178 196 q 236 153 214 158 q 307 148 259 148 l 435 148 l 452 148 q 521 88 521 147 q 492 26 521 52 q 422 0 463 0 l 406 0 z "},"é":{"ha":553,"x_min":18,"x_max":544,"o":"m 213 322 l 288 322 q 358 353 358 322 q 345 379 358 368 q 313 389 332 389 q 213 322 249 389 m 316 199 l 180 199 q 257 148 182 148 l 458 148 l 475 148 q 544 87 544 147 q 515 26 544 52 q 446 0 486 0 l 429 0 l 237 0 q 155 8 185 0 q 98 35 125 16 q 39 109 59 64 q 18 210 18 153 q 60 368 18 296 q 170 484 100 441 q 320 528 239 528 q 421 507 378 528 q 490 446 466 485 q 514 357 514 407 q 490 272 514 310 q 424 216 465 233 q 380 203 399 205 q 316 199 359 199 m 494 696 l 409 629 q 359 606 380 606 q 329 620 342 606 q 315 649 315 633 q 317 661 315 656 l 323 675 l 349 745 q 372 779 358 769 q 410 788 386 788 l 450 788 q 500 777 486 788 q 515 739 515 766 q 494 696 515 714 z "},"è":{"ha":553,"x_min":18,"x_max":544,"o":"m 213 322 l 288 322 q 358 353 358 322 q 345 379 358 368 q 313 389 332 389 q 213 322 249 389 m 316 199 l 180 199 q 257 148 182 148 l 458 148 l 475 148 q 544 87 544 147 q 515 26 544 52 q 446 0 486 0 l 429 0 l 237 0 q 155 8 185 0 q 98 35 125 16 q 39 109 59 64 q 18 210 18 153 q 60 368 18 296 q 170 484 100 441 q 320 528 239 528 q 421 507 378 528 q 490 446 466 485 q 514 357 514 407 q 490 272 514 310 q 424 216 465 233 q 380 203 399 205 q 316 199 359 199 m 364 755 l 392 690 q 400 654 400 671 q 388 626 400 637 q 359 614 375 614 q 316 631 339 614 l 235 690 q 206 718 214 706 q 199 745 199 729 q 214 781 199 768 q 250 794 229 794 l 300 794 q 341 786 328 794 q 364 755 355 776 z "},"ê":{"ha":553,"x_min":18,"x_max":544,"o":"m 213 322 l 288 322 q 358 353 358 322 q 345 379 358 368 q 313 389 332 389 q 213 322 249 389 m 316 199 l 180 199 q 257 148 182 148 l 458 148 l 475 148 q 544 87 544 147 q 515 26 544 52 q 446 0 486 0 l 429 0 l 237 0 q 155 8 185 0 q 98 35 125 16 q 39 109 59 64 q 18 210 18 153 q 60 368 18 296 q 170 484 100 441 q 320 528 239 528 q 421 507 378 528 q 490 446 466 485 q 514 357 514 407 q 490 272 514 310 q 424 216 465 233 q 380 203 399 205 q 316 199 359 199 m 430 635 l 390 671 l 309 627 q 251 606 274 606 q 215 624 231 606 q 199 662 199 642 q 212 701 199 684 q 256 734 225 718 l 336 776 q 403 798 377 798 q 439 781 420 798 q 444 778 441 780 q 448 774 447 776 q 452 770 452 770 l 507 724 q 542 663 542 697 q 526 623 542 639 q 484 607 509 607 q 471 608 473 607 q 462 612 467 609 q 450 619 454 616 q 443 625 448 621 q 430 635 437 629 z "},"ë":{"ha":553,"x_min":18,"x_max":599,"o":"m 213 322 l 288 322 q 358 353 358 322 q 345 379 358 368 q 313 389 332 389 q 213 322 249 389 m 316 199 l 180 199 q 257 148 182 148 l 458 148 l 475 148 q 544 87 544 147 q 515 26 544 52 q 446 0 486 0 l 429 0 l 237 0 q 155 8 185 0 q 98 35 125 16 q 39 109 59 64 q 18 210 18 153 q 60 368 18 296 q 170 484 100 441 q 320 528 239 528 q 421 507 378 528 q 490 446 466 485 q 514 357 514 407 q 490 272 514 310 q 424 216 465 233 q 380 203 399 205 q 316 199 359 199 m 248 606 q 183 634 210 606 q 156 700 156 661 q 183 764 156 738 q 248 790 210 790 q 313 764 287 790 q 340 699 340 737 q 313 634 340 662 q 248 606 286 606 m 507 606 q 441 633 468 606 q 415 700 415 661 q 443 764 415 738 q 507 790 471 790 q 572 764 546 790 q 599 699 599 737 q 572 634 599 662 q 507 606 545 606 z "},"í":{"ha":378,"x_min":20,"x_max":444,"o":"m 305 388 l 208 148 l 285 148 l 301 148 q 370 87 370 147 q 342 26 370 52 q 273 0 312 0 l 256 0 l 148 0 q 54 24 87 0 q 20 92 20 49 q 34 148 20 113 l 146 423 l 153 441 q 254 518 186 518 q 303 500 284 518 q 323 453 323 481 q 313 406 323 431 l 305 388 m 422 684 l 338 616 q 288 593 309 593 q 258 607 271 593 q 244 636 244 621 q 246 648 244 644 l 252 662 l 278 732 q 301 766 287 756 q 339 775 315 775 l 379 775 q 429 764 414 775 q 444 726 444 753 q 422 684 444 701 z "},"ì":{"ha":378,"x_min":20,"x_max":370,"o":"m 305 388 l 208 148 l 285 148 l 301 148 q 370 87 370 147 q 342 26 370 52 q 273 0 312 0 l 256 0 l 148 0 q 54 24 87 0 q 20 92 20 49 q 34 148 20 113 l 146 423 l 153 441 q 254 518 186 518 q 303 500 284 518 q 323 453 323 481 q 313 406 323 431 l 305 388 m 322 749 l 350 685 q 358 648 358 666 q 346 621 358 632 q 317 608 333 608 q 274 625 297 608 l 193 685 q 164 712 172 701 q 157 740 157 724 q 172 775 157 762 q 208 789 187 789 l 258 789 q 299 781 286 789 q 322 749 313 770 z "},"î":{"ha":378,"x_min":20,"x_max":477,"o":"m 305 388 l 208 148 l 285 148 l 301 148 q 370 87 370 147 q 342 26 370 52 q 273 0 312 0 l 256 0 l 148 0 q 54 24 87 0 q 20 92 20 49 q 34 148 20 113 l 146 423 l 153 441 q 254 518 186 518 q 303 500 284 518 q 323 453 323 481 q 313 406 323 431 l 305 388 m 365 635 l 325 671 l 244 627 q 186 606 209 606 q 150 624 165 606 q 134 662 134 642 q 147 701 134 684 q 191 734 160 718 l 271 776 q 338 798 312 798 q 374 781 355 798 q 379 778 376 780 q 382 774 382 776 q 387 770 387 770 l 442 724 q 477 663 477 697 q 460 623 477 639 q 418 607 444 607 q 406 608 408 607 q 397 612 402 609 q 385 619 389 616 q 378 625 383 621 q 365 635 372 629 z "},"ï":{"ha":378,"x_min":20,"x_max":537,"o":"m 305 388 l 208 148 l 285 148 l 301 148 q 370 87 370 147 q 342 26 370 52 q 273 0 312 0 l 256 0 l 148 0 q 54 24 87 0 q 20 92 20 49 q 34 148 20 113 l 146 423 l 153 441 q 254 518 186 518 q 303 500 284 518 q 323 453 323 481 q 313 406 323 431 l 305 388 m 186 595 q 121 623 148 595 q 94 689 94 650 q 121 753 94 727 q 186 779 149 779 q 252 753 225 779 q 278 688 278 726 q 252 623 278 651 q 186 595 224 595 m 446 595 q 380 623 406 595 q 353 689 353 650 q 381 753 353 727 q 446 779 409 779 q 511 753 484 779 q 537 688 537 726 q 511 623 537 651 q 446 595 483 595 z "},"ñ":{"ha":711,"x_min":18,"x_max":701,"o":"m 608 330 l 534 148 l 615 148 l 631 148 q 701 87 701 147 q 672 26 701 51 q 603 0 642 0 l 587 0 l 445 0 q 376 25 404 0 q 347 86 347 51 q 366 157 347 113 l 426 305 q 436 343 436 330 q 422 371 436 359 q 388 382 410 382 q 311 338 346 382 q 275 277 289 309 l 195 80 l 188 62 q 146 5 171 24 q 87 -14 121 -14 q 39 4 58 -14 q 18 50 18 22 q 28 97 18 72 l 36 115 l 173 453 q 264 519 199 519 q 338 472 317 519 q 408 515 377 503 q 475 528 439 528 q 581 491 539 528 q 623 399 623 454 q 608 330 623 367 m 652 681 l 613 637 q 550 606 587 606 q 483 635 517 606 q 457 651 464 651 q 435 638 448 651 q 376 611 408 611 q 338 627 354 611 q 323 665 323 642 q 345 716 323 687 l 372 750 q 447 789 404 789 q 505 766 471 789 l 526 751 q 542 745 536 745 q 559 754 551 745 l 575 770 q 609 785 589 785 q 654 769 635 785 q 671 730 671 753 q 652 681 671 704 z "},"ó":{"ha":575,"x_min":18,"x_max":557,"o":"m 395 300 q 374 360 395 336 q 317 383 351 383 q 252 361 283 383 q 201 301 221 338 q 182 223 182 265 q 267 146 182 146 q 334 163 312 146 q 378 223 359 183 q 395 300 395 264 m 252 -1 q 162 5 191 -1 q 109 26 134 10 q 43 106 66 58 q 18 212 18 155 q 43 333 18 276 q 111 434 68 391 q 210 503 153 477 q 328 528 264 528 q 420 512 378 528 q 492 467 462 497 q 540 397 523 438 q 557 307 557 356 q 539 202 557 257 q 489 104 521 149 q 416 34 457 60 q 374 14 394 20 q 326 3 350 5 q 252 -1 295 -1 m 499 693 l 414 626 q 364 603 385 603 q 334 616 348 603 q 321 646 321 630 q 323 658 321 653 l 329 671 l 355 741 q 378 775 363 766 q 416 785 391 785 l 456 785 q 506 774 491 785 q 521 736 521 763 q 499 693 521 711 z "},"ò":{"ha":575,"x_min":18,"x_max":557,"o":"m 395 300 q 374 360 395 336 q 317 383 351 383 q 252 361 283 383 q 201 301 221 338 q 182 223 182 265 q 267 146 182 146 q 334 163 312 146 q 378 223 359 183 q 395 300 395 264 m 252 -1 q 162 5 191 -1 q 109 26 134 10 q 43 106 66 58 q 18 212 18 155 q 43 333 18 276 q 111 434 68 391 q 210 503 153 477 q 328 528 264 528 q 420 512 378 528 q 492 467 462 497 q 540 397 523 438 q 557 307 557 356 q 539 202 557 257 q 489 104 521 149 q 416 34 457 60 q 374 14 394 20 q 326 3 350 5 q 252 -1 295 -1 m 368 751 l 395 686 q 404 650 404 667 q 391 622 404 633 q 362 610 378 610 q 319 627 342 610 l 239 686 q 210 713 217 702 q 202 741 202 725 q 217 777 202 764 q 253 790 233 790 l 303 790 q 345 782 332 790 q 368 751 359 772 z "},"ô":{"ha":575,"x_min":18,"x_max":557,"o":"m 395 300 q 374 360 395 336 q 317 383 351 383 q 252 361 283 383 q 201 301 221 338 q 182 223 182 265 q 267 146 182 146 q 334 163 312 146 q 378 223 359 183 q 395 300 395 264 m 252 -1 q 162 5 191 -1 q 109 26 134 10 q 43 106 66 58 q 18 212 18 155 q 43 333 18 276 q 111 434 68 391 q 210 503 153 477 q 328 528 264 528 q 420 512 378 528 q 492 467 462 497 q 540 397 523 438 q 557 307 557 356 q 539 202 557 257 q 489 104 521 149 q 416 34 457 60 q 374 14 394 20 q 326 3 350 5 q 252 -1 295 -1 m 439 635 l 399 671 l 318 627 q 260 606 283 606 q 224 624 239 606 q 208 662 208 642 q 221 701 208 684 q 265 734 234 718 l 345 776 q 412 798 386 798 q 448 781 429 798 q 453 778 450 780 q 456 774 456 776 q 461 770 461 770 l 516 724 q 551 663 551 697 q 534 623 551 639 q 492 607 517 607 q 480 608 482 607 q 471 612 476 609 q 458 619 463 616 q 452 625 457 621 q 439 635 446 629 z "},"ö":{"ha":575,"x_min":18,"x_max":599,"o":"m 395 300 q 374 360 395 336 q 317 383 351 383 q 252 361 283 383 q 201 301 221 338 q 182 223 182 265 q 267 146 182 146 q 334 163 312 146 q 378 223 359 183 q 395 300 395 264 m 252 -1 q 162 5 191 -1 q 109 26 134 10 q 43 106 66 58 q 18 212 18 155 q 43 333 18 276 q 111 434 68 391 q 210 503 153 477 q 328 528 264 528 q 420 512 378 528 q 492 467 462 497 q 540 397 523 438 q 557 307 557 356 q 539 202 557 257 q 489 104 521 149 q 416 34 457 60 q 374 14 394 20 q 326 3 350 5 q 252 -1 295 -1 m 248 601 q 183 629 210 601 q 156 694 156 656 q 183 759 156 732 q 248 785 210 785 q 313 758 287 785 q 340 693 340 732 q 313 629 340 656 q 248 601 286 601 m 507 601 q 441 628 468 601 q 415 694 415 656 q 443 759 415 732 q 507 785 471 785 q 572 758 546 785 q 599 693 599 732 q 572 629 599 656 q 507 601 545 601 z "},"õ":{"ha":575,"x_min":18,"x_max":560,"o":"m 395 300 q 374 360 395 336 q 317 383 351 383 q 252 361 283 383 q 201 301 221 338 q 182 223 182 265 q 267 146 182 146 q 334 163 312 146 q 378 223 359 183 q 395 300 395 264 m 252 -1 q 162 5 191 -1 q 109 26 134 10 q 43 106 66 58 q 18 212 18 155 q 43 333 18 276 q 111 434 68 391 q 210 503 153 477 q 328 528 264 528 q 420 512 378 528 q 492 467 462 497 q 540 397 523 438 q 557 307 557 356 q 539 202 557 257 q 489 104 521 149 q 416 34 457 60 q 374 14 394 20 q 326 3 350 5 q 252 -1 295 -1 m 541 679 l 502 635 q 439 604 475 604 q 372 633 406 604 q 346 649 353 649 q 323 636 336 649 q 265 609 296 609 q 227 625 243 609 q 212 663 212 640 q 234 714 212 685 l 260 748 q 336 787 292 787 q 393 764 360 787 l 415 749 q 431 743 425 743 q 448 752 439 743 l 464 768 q 498 783 478 783 q 543 767 524 783 q 560 728 560 751 q 541 679 560 702 z "},"ú":{"ha":711,"x_min":27,"x_max":669,"o":"m 603 389 l 505 148 l 584 148 l 600 148 q 669 87 669 147 q 641 26 669 52 q 572 0 611 0 l 555 0 l 425 0 q 386 12 404 0 q 358 44 368 24 q 266 0 320 0 l 156 0 q 120 7 142 0 q 83 23 96 15 q 43 69 59 39 q 27 130 27 100 q 45 208 27 165 l 137 434 q 182 507 157 484 q 243 528 205 528 q 292 509 273 528 q 312 464 312 491 q 302 417 312 443 l 294 399 l 223 224 l 216 204 q 208 177 208 184 q 219 156 208 165 q 247 147 230 147 q 296 153 282 147 q 358 211 340 170 l 444 424 q 490 496 466 475 q 552 518 515 518 q 601 500 582 518 q 621 454 621 481 q 603 389 621 432 m 584 696 l 499 629 q 449 606 470 606 q 419 620 433 606 q 406 649 406 633 q 408 661 406 656 l 414 675 l 439 745 q 463 779 448 769 q 500 788 476 788 l 541 788 q 591 777 576 788 q 606 739 606 766 q 584 696 606 714 z "},"ù":{"ha":711,"x_min":27,"x_max":669,"o":"m 603 389 l 505 148 l 584 148 l 600 148 q 669 87 669 147 q 641 26 669 52 q 572 0 611 0 l 555 0 l 425 0 q 386 12 404 0 q 358 44 368 24 q 266 0 320 0 l 156 0 q 120 7 142 0 q 83 23 96 15 q 43 69 59 39 q 27 130 27 100 q 45 208 27 165 l 137 434 q 182 507 157 484 q 243 528 205 528 q 292 509 273 528 q 312 464 312 491 q 302 417 312 443 l 294 399 l 223 224 l 216 204 q 208 177 208 184 q 219 156 208 165 q 247 147 230 147 q 296 153 282 147 q 358 211 340 170 l 444 424 q 490 496 466 475 q 552 518 515 518 q 601 500 582 518 q 621 454 621 481 q 603 389 621 432 m 429 753 l 456 688 q 465 652 465 669 q 452 624 465 635 q 423 612 439 612 q 380 629 404 612 l 300 688 q 271 715 278 704 q 263 743 263 727 q 278 779 263 766 q 314 792 294 792 l 364 792 q 406 784 393 792 q 429 753 420 774 z "},"û":{"ha":711,"x_min":27,"x_max":669,"o":"m 603 389 l 505 148 l 584 148 l 600 148 q 669 87 669 147 q 641 26 669 52 q 572 0 611 0 l 555 0 l 425 0 q 386 12 404 0 q 358 44 368 24 q 266 0 320 0 l 156 0 q 120 7 142 0 q 83 23 96 15 q 43 69 59 39 q 27 130 27 100 q 45 208 27 165 l 137 434 q 182 507 157 484 q 243 528 205 528 q 292 509 273 528 q 312 464 312 491 q 302 417 312 443 l 294 399 l 223 224 l 216 204 q 208 177 208 184 q 219 156 208 165 q 247 147 230 147 q 296 153 282 147 q 358 211 340 170 l 444 424 q 490 496 466 475 q 552 518 515 518 q 601 500 582 518 q 621 454 621 481 q 603 389 621 432 m 504 635 l 464 671 l 383 627 q 325 606 348 606 q 289 624 304 606 q 273 662 273 642 q 286 701 273 684 q 330 734 299 718 l 410 776 q 477 798 451 798 q 513 781 494 798 q 518 778 515 780 q 522 774 521 776 q 526 770 526 770 l 581 724 q 616 663 616 697 q 600 623 616 639 q 557 607 583 607 q 545 608 547 607 q 536 612 541 609 q 524 619 528 616 q 517 625 522 621 q 504 635 511 629 z "},"ü":{"ha":711,"x_min":27,"x_max":669,"o":"m 603 389 l 505 148 l 584 148 l 600 148 q 669 87 669 147 q 641 26 669 52 q 572 0 611 0 l 555 0 l 425 0 q 386 12 404 0 q 358 44 368 24 q 266 0 320 0 l 156 0 q 120 7 142 0 q 83 23 96 15 q 43 69 59 39 q 27 130 27 100 q 45 208 27 165 l 137 434 q 182 507 157 484 q 243 528 205 528 q 292 509 273 528 q 312 464 312 491 q 302 417 312 443 l 294 399 l 223 224 l 216 204 q 208 177 208 184 q 219 156 208 165 q 247 147 230 147 q 296 153 282 147 q 358 211 340 170 l 444 424 q 490 496 466 475 q 552 518 515 518 q 601 500 582 518 q 621 454 621 481 q 603 389 621 432 m 318 599 q 254 627 280 599 q 227 692 227 654 q 254 757 227 730 q 318 783 281 783 q 384 756 357 783 q 410 691 410 730 q 384 627 410 654 q 318 599 356 599 m 578 599 q 512 626 538 599 q 486 692 486 654 q 513 757 486 730 q 578 783 541 783 q 643 756 616 783 q 669 691 669 730 q 643 627 669 654 q 578 599 615 599 z "},"†":{"ha":555,"x_min":46,"x_max":509,"o":"m 56 916 l 56 9 l 500 9 l 500 916 l 56 916 m 509 0 l 46 0 l 46 926 l 509 926 l 509 0 z "},"°":{"ha":555,"x_min":46,"x_max":509,"o":"m 56 916 l 56 9 l 500 9 l 500 916 l 56 916 m 509 0 l 46 0 l 46 926 l 509 926 l 509 0 z "},"¢":{"ha":551,"x_min":111,"x_max":584,"o":"m 511 655 q 564 604 543 640 q 584 522 584 567 q 559 441 584 473 q 494 410 534 410 q 431 471 431 410 l 431 485 q 433 500 433 503 q 419 530 433 517 q 387 543 406 543 q 330 522 357 543 q 286 467 304 502 q 269 395 269 433 q 288 336 269 357 q 336 313 307 313 q 373 319 355 313 l 398 330 q 424 335 413 335 q 467 315 450 335 q 484 262 484 294 q 355 157 484 165 q 328 99 351 120 q 273 78 307 78 q 222 97 241 78 q 201 144 201 115 q 208 180 201 160 q 134 264 159 217 q 111 372 111 310 q 129 479 111 428 q 179 571 146 530 q 257 641 214 614 q 355 682 300 668 q 441 751 376 751 q 494 732 475 751 q 514 681 514 713 q 511 655 514 673 z "},"£":{"ha":627,"x_min":0,"x_max":686,"o":"m 366 454 l 366 439 l 453 439 l 470 439 q 542 377 542 438 q 512 313 542 340 q 441 287 483 287 l 424 287 l 332 287 q 247 148 304 209 l 447 148 l 463 148 q 532 87 532 147 q 504 26 532 52 q 435 0 474 0 l 418 0 l 119 0 q 58 1 75 0 q 35 9 47 2 q 0 69 0 26 q 9 106 0 90 q 43 144 20 123 q 155 287 127 216 q 75 349 75 288 q 105 412 75 385 q 176 439 135 439 l 193 439 l 203 439 l 204 453 q 206 488 205 476 q 207 507 207 497 l 208 562 q 229 679 210 628 q 280 767 248 732 q 359 823 313 804 q 460 842 406 842 q 552 827 510 842 q 625 785 595 812 q 671 718 654 757 q 686 631 686 679 q 654 512 686 560 q 572 463 621 463 q 517 484 539 463 q 494 534 494 505 q 502 574 494 551 l 512 605 q 516 629 516 616 q 500 671 516 654 q 460 687 484 687 q 393 650 420 687 q 374 612 379 630 q 369 557 369 591 q 366 454 369 498 z "},"§":{"ha":555,"x_min":46,"x_max":509,"o":"m 56 916 l 56 9 l 500 9 l 500 916 l 56 916 m 509 0 l 46 0 l 46 926 l 509 926 l 509 0 z "},"•":{"ha":595,"x_min":139,"x_max":549,"o":"m 344 667 q 446 640 399 667 q 521 565 494 612 q 549 463 549 517 q 521 360 549 408 q 446 286 494 313 q 344 258 398 258 q 267 273 305 258 q 199 318 229 289 q 155 385 170 348 q 139 463 139 424 q 167 565 139 517 q 241 640 195 613 q 344 667 289 667 z "},"¶":{"ha":555,"x_min":46,"x_max":509,"o":"m 56 916 l 56 9 l 500 9 l 500 916 l 56 916 m 509 0 l 46 0 l 46 926 l 509 926 l 509 0 z "},"ß":{"ha":686,"x_min":5,"x_max":764,"o":"m 597 487 q 650 419 633 455 q 665 332 665 382 q 636 195 665 262 q 560 82 606 126 q 494 34 529 54 q 418 2 460 14 q 342 -9 378 -9 q 254 18 290 -9 q 216 82 216 44 q 237 130 216 111 q 288 150 259 150 q 326 147 304 150 q 355 146 357 146 q 427 174 393 146 q 482 246 461 201 q 503 342 503 291 q 494 400 503 378 q 462 437 485 421 l 437 454 q 406 506 406 476 q 469 575 406 562 q 527 591 512 585 q 559 613 541 597 q 591 660 579 633 q 604 713 604 686 q 585 764 604 745 q 534 783 566 783 q 428 691 465 783 l 178 76 l 171 58 q 73 -17 140 -17 q 24 1 44 -17 q 5 47 5 20 q 14 93 5 68 l 22 111 l 280 746 q 530 930 355 930 q 652 904 598 930 q 734 829 705 878 q 764 721 764 781 q 745 621 764 667 q 688 541 724 574 q 597 487 650 507 z "},"®":{"ha":555,"x_min":46,"x_max":509,"o":"m 56 916 l 56 9 l 500 9 l 500 916 l 56 916 m 509 0 l 46 0 l 46 926 l 509 926 l 509 0 z "},"©":{"ha":555,"x_min":46,"x_max":509,"o":"m 56 916 l 56 9 l 500 9 l 500 916 l 56 916 m 509 0 l 46 0 l 46 926 l 509 926 l 509 0 z "},"™":{"ha":555,"x_min":46,"x_max":509,"o":"m 56 916 l 56 9 l 500 9 l 500 916 l 56 916 m 509 0 l 46 0 l 46 926 l 509 926 l 509 0 z "},"´":{"ha":386,"x_min":93,"x_max":293,"o":"m 271 696 l 186 629 q 136 606 157 606 q 106 620 120 606 q 93 649 93 633 q 95 661 93 656 l 101 675 l 127 745 q 150 779 136 769 q 188 788 163 788 l 228 788 q 278 777 263 788 q 293 739 293 766 q 271 696 293 714 z "},"¨":{"ha":629,"x_min":93,"x_max":536,"o":"m 184 606 q 120 634 146 606 q 93 700 93 661 q 120 764 93 738 q 184 790 147 790 q 250 764 224 790 q 277 699 277 737 q 250 634 277 662 q 184 606 222 606 m 444 606 q 378 633 405 606 q 352 700 352 661 q 380 764 352 738 q 444 790 408 790 q 509 764 483 790 q 536 699 536 737 q 509 634 536 662 q 444 606 481 606 z "},"≠":{"ha":555,"x_min":46,"x_max":509,"o":"m 56 916 l 56 9 l 500 9 l 500 916 l 56 916 m 509 0 l 46 0 l 46 926 l 509 926 l 509 0 z "},"Æ":{"ha":555,"x_min":46,"x_max":509,"o":"m 56 916 l 56 9 l 500 9 l 500 916 l 56 916 m 509 0 l 46 0 l 46 926 l 509 926 l 509 0 z "},"Ø":{"ha":555,"x_min":46,"x_max":509,"o":"m 56 916 l 56 9 l 500 9 l 500 916 l 56 916 m 509 0 l 46 0 l 46 926 l 509 926 l 509 0 z "},"∞":{"ha":555,"x_min":46,"x_max":509,"o":"m 56 916 l 56 9 l 500 9 l 500 916 l 56 916 m 509 0 l 46 0 l 46 926 l 509 926 l 509 0 z "},"±":{"ha":555,"x_min":46,"x_max":509,"o":"m 56 916 l 56 9 l 500 9 l 500 916 l 56 916 m 509 0 l 46 0 l 46 926 l 509 926 l 509 0 z "},"≤":{"ha":555,"x_min":46,"x_max":509,"o":"m 56 916 l 56 9 l 500 9 l 500 916 l 56 916 m 509 0 l 46 0 l 46 926 l 509 926 l 509 0 z "},"≥":{"ha":555,"x_min":46,"x_max":509,"o":"m 56 916 l 56 9 l 500 9 l 500 916 l 56 916 m 509 0 l 46 0 l 46 926 l 509 926 l 509 0 z "},"¥":{"ha":633,"x_min":73,"x_max":732,"o":"m 408 185 l 345 185 l 302 81 q 258 9 283 31 q 195 -13 233 -13 q 146 5 166 -13 q 126 52 126 24 q 136 98 126 73 l 144 116 l 172 185 l 157 185 l 140 185 q 73 245 73 186 q 102 307 73 282 q 172 333 132 333 l 189 333 l 232 333 l 246 368 l 244 463 l 214 463 l 197 463 q 129 522 129 465 q 159 585 129 559 q 229 611 189 611 l 240 611 l 248 611 l 243 721 l 243 733 q 271 804 243 774 q 338 833 298 833 q 402 753 402 833 l 402 736 l 401 553 l 559 768 l 571 785 q 661 842 610 842 q 698 833 682 842 q 723 808 714 824 q 732 770 732 791 q 691 685 732 739 l 633 610 q 692 551 692 603 q 662 489 692 515 q 592 463 632 463 l 576 463 l 519 463 l 414 333 l 439 333 l 456 333 q 524 274 524 332 q 495 212 524 237 q 425 185 466 185 l 408 185 z "},"µ":{"ha":555,"x_min":46,"x_max":509,"o":"m 56 916 l 56 9 l 500 9 l 500 916 l 56 916 m 509 0 l 46 0 l 46 926 l 509 926 l 509 0 z "},"∂":{"ha":555,"x_min":46,"x_max":509,"o":"m 56 916 l 56 9 l 500 9 l 500 916 l 56 916 m 509 0 l 46 0 l 46 926 l 509 926 l 509 0 z "},"Σ":{"ha":555,"x_min":46,"x_max":509,"o":"m 56 916 l 56 9 l 500 9 l 500 916 l 56 916 m 509 0 l 46 0 l 46 926 l 509 926 l 509 0 z "},"∏":{"ha":555,"x_min":46,"x_max":509,"o":"m 56 916 l 56 9 l 500 9 l 500 916 l 56 916 m 509 0 l 46 0 l 46 926 l 509 926 l 509 0 z "},"π":{"ha":555,"x_min":46,"x_max":509,"o":"m 56 916 l 56 9 l 500 9 l 500 916 l 56 916 m 509 0 l 46 0 l 46 926 l 509 926 l 509 0 z "},"∫":{"ha":555,"x_min":46,"x_max":509,"o":"m 56 916 l 56 9 l 500 9 l 500 916 l 56 916 m 509 0 l 46 0 l 46 926 l 509 926 l 509 0 z "},"ª":{"ha":555,"x_min":46,"x_max":509,"o":"m 56 916 l 56 9 l 500 9 l 500 916 l 56 916 m 509 0 l 46 0 l 46 926 l 509 926 l 509 0 z "},"º":{"ha":555,"x_min":46,"x_max":509,"o":"m 56 916 l 56 9 l 500 9 l 500 916 l 56 916 m 509 0 l 46 0 l 46 926 l 509 926 l 509 0 z "},"Ω":{"ha":555,"x_min":46,"x_max":509,"o":"m 56 916 l 56 9 l 500 9 l 500 916 l 56 916 m 509 0 l 46 0 l 46 926 l 509 926 l 509 0 z "},"æ":{"ha":868,"x_min":18,"x_max":859,"o":"m 334 201 l 252 201 q 177 163 177 201 q 193 137 178 146 q 232 127 207 127 q 336 172 286 127 q 335 188 335 178 q 334 201 335 197 m 534 325 l 614 325 q 675 354 675 325 q 663 380 675 370 q 630 389 650 389 q 534 325 566 389 m 648 201 l 498 201 q 519 161 502 173 q 570 148 536 148 l 773 148 l 789 148 q 859 87 859 147 q 829 26 859 51 q 760 0 800 0 l 744 0 l 531 0 q 488 6 518 0 q 444 18 460 12 q 425 27 430 23 q 394 52 419 31 q 212 -12 316 -12 q 112 10 156 -12 q 43 70 68 31 q 18 157 18 107 q 45 248 18 206 q 116 307 71 288 q 229 325 155 325 l 356 325 q 337 367 353 354 q 286 380 320 380 l 205 380 l 190 380 q 125 437 125 381 q 152 495 125 472 q 216 518 178 518 l 232 518 l 330 518 q 374 513 345 518 q 415 501 399 507 q 467 462 438 491 q 549 513 509 497 q 640 528 588 528 q 740 507 697 528 q 807 446 783 486 q 831 357 831 406 q 782 243 831 285 q 648 201 732 201 z "},"ø":{"ha":575,"x_min":-7,"x_max":572,"o":"m 397 300 q 376 360 397 336 q 319 383 353 383 q 226 334 268 383 q 184 223 184 285 q 270 146 184 146 q 336 163 314 146 q 380 224 363 185 q 397 300 397 262 m 537 408 q 560 304 560 359 q 546 210 560 256 q 506 123 532 165 q 442 51 479 82 q 363 12 408 22 q 242 0 316 0 q 136 14 173 0 q 60 -26 96 -26 q 14 -6 34 -26 q -7 39 -7 13 q 3 77 -7 59 q 37 119 14 96 q 21 213 21 171 q 46 332 21 275 q 115 433 72 390 q 216 503 159 477 q 335 528 271 528 q 435 507 387 528 q 504 541 473 541 q 550 519 528 541 q 572 475 572 498 q 537 408 572 448 z "},"¿":{"ha":685,"x_min":83,"x_max":603,"o":"m 323 -18 q 229 -1 273 -18 q 151 43 183 15 q 102 111 119 71 q 83 197 83 151 q 112 309 83 260 q 213 416 140 358 q 245 443 233 433 q 275 467 258 453 q 319 508 300 488 q 342 539 337 526 l 369 599 q 433 643 389 643 q 487 622 466 643 q 508 570 508 601 q 492 502 508 538 q 440 424 474 464 q 351 334 403 380 q 279 264 290 278 q 255 208 255 236 q 279 155 255 177 q 336 134 302 134 q 381 145 359 134 q 416 176 401 156 q 429 217 429 195 q 416 271 429 232 q 409 313 409 297 q 430 363 409 342 q 480 384 451 384 q 560 341 528 384 q 592 233 592 297 q 557 104 592 162 q 462 14 523 46 q 323 -18 401 -18 m 509 865 q 556 852 535 865 q 591 818 578 840 q 603 770 603 795 q 576 704 603 731 q 510 675 549 675 q 442 703 470 675 q 414 771 414 731 q 443 838 414 810 q 509 865 470 865 z "},"¡":{"ha":426,"x_min":56,"x_max":471,"o":"m 73 135 l 221 537 q 262 616 243 592 q 308 641 283 641 q 342 631 326 641 q 367 607 358 623 q 376 574 376 592 q 368 531 376 559 l 241 68 q 203 5 230 28 q 143 -18 178 -18 q 81 6 107 -18 q 56 65 56 30 q 73 135 56 90 m 376 867 q 424 854 401 867 q 458 820 446 842 q 471 772 471 798 q 444 706 471 733 q 378 677 416 677 q 310 705 338 677 q 282 773 282 733 q 310 840 282 812 q 376 867 337 867 z "},"¬":{"ha":555,"x_min":46,"x_max":509,"o":"m 56 916 l 56 9 l 500 9 l 500 916 l 56 916 m 509 0 l 46 0 l 46 926 l 509 926 l 509 0 z "},"√":{"ha":555,"x_min":46,"x_max":509,"o":"m 56 916 l 56 9 l 500 9 l 500 916 l 56 916 m 509 0 l 46 0 l 46 926 l 509 926 l 509 0 z "},"ƒ":{"ha":630,"x_min":-69,"x_max":815,"o":"m 534 767 l 471 611 l 610 611 l 627 611 q 679 595 660 611 q 696 551 696 579 q 668 489 696 515 q 598 463 638 463 l 582 463 l 411 463 l 106 -287 l 99 -305 q -1 -381 66 -381 q -50 -363 -31 -381 q -69 -317 -69 -345 q -66 -293 -69 -302 q -52 -252 -62 -279 l 238 463 l 193 463 l 176 463 q 106 524 106 465 q 136 586 106 561 q 205 611 163 611 l 221 611 l 298 611 l 385 823 q 490 975 428 929 q 651 1019 550 1019 l 728 1019 l 745 1019 q 815 958 815 1017 q 786 895 815 920 q 716 869 756 869 l 699 869 l 680 869 q 589 846 623 869 q 534 767 556 823 z "},"≈":{"ha":555,"x_min":46,"x_max":509,"o":"m 56 916 l 56 9 l 500 9 l 500 916 l 56 916 m 509 0 l 46 0 l 46 926 l 509 926 l 509 0 z "},"∆":{"ha":555,"x_min":46,"x_max":509,"o":"m 56 916 l 56 9 l 500 9 l 500 916 l 56 916 m 509 0 l 46 0 l 46 926 l 509 926 l 509 0 z "},"«":{"ha":606,"x_min":92,"x_max":515,"o":"m 281 365 l 228 290 l 264 193 q 275 149 275 165 q 254 99 275 122 q 204 76 231 76 q 156 115 170 76 l 151 127 l 114 224 l 101 257 q 92 296 92 279 q 121 361 92 321 l 178 441 q 218 484 202 473 q 254 496 233 496 q 295 478 279 496 q 311 434 311 461 q 290 379 311 408 l 281 365 m 484 365 l 432 290 l 468 193 q 479 149 479 165 q 458 98 479 119 q 408 76 437 76 q 359 115 374 76 l 355 127 l 317 224 l 304 257 q 296 296 296 281 q 325 361 296 322 l 382 441 q 421 484 406 473 q 458 496 437 496 q 498 478 482 496 q 515 434 515 461 q 494 379 515 410 l 484 365 z "},"»":{"ha":606,"x_min":91,"x_max":513,"o":"m 326 206 l 378 281 l 342 378 q 331 422 331 406 q 353 473 331 449 q 401 495 374 495 q 450 456 436 495 l 455 444 l 492 347 l 505 314 q 513 275 513 292 q 485 210 513 250 l 428 130 q 389 87 406 99 q 352 76 372 76 q 311 94 328 76 q 295 137 295 111 q 315 192 295 163 l 326 206 m 121 206 l 174 281 l 138 378 q 127 422 127 408 q 149 473 127 449 q 198 495 171 495 q 247 456 233 495 l 252 444 l 288 347 l 301 314 q 310 275 310 292 q 281 210 310 250 l 224 130 q 185 87 201 99 q 149 76 168 76 q 108 94 125 76 q 91 137 91 111 q 112 192 91 163 l 121 206 z "},"…":{"ha":1389,"x_min":114,"x_max":1228,"o":"m 1134 -18 q 1087 -5 1108 -18 q 1053 29 1065 7 q 1040 76 1040 50 q 1053 123 1040 102 q 1087 158 1066 145 q 1133 170 1109 170 q 1181 157 1160 170 q 1215 123 1202 144 q 1228 75 1228 102 q 1201 9 1228 35 q 1134 -18 1174 -18 m 671 -18 q 624 -5 645 -18 q 589 29 602 7 q 576 76 576 50 q 589 123 576 102 q 624 158 603 145 q 669 170 646 170 q 718 157 696 170 q 753 123 740 144 q 766 75 766 102 q 739 9 766 37 q 671 -18 711 -18 m 208 -18 q 161 -5 182 -18 q 127 29 139 7 q 114 76 114 50 q 127 123 114 102 q 161 158 140 145 q 207 170 183 170 q 255 157 234 170 q 290 123 277 144 q 302 75 302 102 q 275 9 302 35 q 208 -18 248 -18 z "}," ":{"ha":259,"x_min":0,"x_max":0,"o":""},"À":{"ha":555,"x_min":46,"x_max":509,"o":"m 56 916 l 56 9 l 500 9 l 500 916 l 56 916 m 509 0 l 46 0 l 46 926 l 509 926 l 509 0 z "},"Ã":{"ha":555,"x_min":46,"x_max":509,"o":"m 56 916 l 56 9 l 500 9 l 500 916 l 56 916 m 509 0 l 46 0 l 46 926 l 509 926 l 509 0 z "},"Õ":{"ha":555,"x_min":46,"x_max":509,"o":"m 56 916 l 56 9 l 500 9 l 500 916 l 56 916 m 509 0 l 46 0 l 46 926 l 509 926 l 509 0 z "},"Œ":{"ha":555,"x_min":46,"x_max":509,"o":"m 56 916 l 56 9 l 500 9 l 500 916 l 56 916 m 509 0 l 46 0 l 46 926 l 509 926 l 509 0 z "},"œ":{"ha":892,"x_min":18,"x_max":883,"o":"m 559 321 l 626 321 q 680 329 661 321 q 696 353 696 336 q 684 378 696 368 q 653 389 671 389 q 596 370 622 389 q 559 321 570 351 m 395 300 q 373 360 395 337 q 316 383 350 383 q 223 334 265 383 q 182 223 182 285 q 267 146 182 146 q 333 163 311 146 q 378 224 359 184 q 395 300 395 264 m 654 199 l 528 199 q 547 160 531 171 q 596 148 562 148 l 797 148 l 814 148 q 865 132 846 148 q 883 87 883 117 q 848 20 883 49 q 769 0 824 0 l 576 0 q 486 12 522 0 q 420 50 451 23 q 386 20 402 29 q 338 4 368 10 q 224 -1 315 -1 q 146 9 176 -1 q 87 43 117 18 q 18 212 18 108 q 61 368 18 296 q 175 484 103 441 q 326 528 247 528 q 423 511 385 528 q 488 458 463 494 q 556 511 515 493 q 654 527 596 527 q 759 507 713 527 q 828 448 805 486 q 852 357 852 410 q 828 272 852 311 q 762 215 805 234 q 718 202 736 205 q 654 199 696 199 z "},"–":{"ha":848,"x_min":93,"x_max":756,"o":"m 157 347 l 170 347 l 679 347 l 692 347 q 739 332 722 347 q 756 290 756 317 q 739 248 756 263 q 692 231 720 231 l 679 231 l 170 231 l 157 231 q 111 248 129 232 q 93 290 93 264 q 111 331 93 315 q 157 347 129 347 z "},"—":{"ha":1574,"x_min":93,"x_max":1481,"o":"m 157 347 l 170 347 l 1404 347 l 1417 347 q 1463 332 1447 347 q 1481 290 1481 317 q 1463 248 1481 263 q 1417 231 1445 231 l 1404 231 l 170 231 l 157 231 q 111 248 129 232 q 93 290 93 264 q 111 331 93 315 q 157 347 129 347 z "},"“":{"ha":591,"x_min":259,"x_max":684,"o":"m 655 863 l 629 826 q 649 766 649 793 q 624 709 649 732 q 564 686 598 686 q 505 710 529 686 q 481 770 481 734 q 498 829 481 802 q 560 894 517 858 q 614 933 594 922 q 650 945 635 945 q 673 936 664 945 q 684 917 684 927 q 668 881 684 905 l 655 863 m 434 863 l 407 826 q 428 766 428 793 q 403 709 428 732 q 343 686 377 686 q 284 710 309 686 q 259 770 259 733 q 267 811 259 793 q 292 849 275 830 q 339 894 309 869 q 392 932 371 920 q 429 945 414 945 q 452 936 441 945 q 463 917 463 927 q 446 881 463 905 l 434 863 z "},"”":{"ha":591,"x_min":259,"x_max":684,"o":"m 509 766 l 536 804 q 515 864 515 837 q 540 921 515 898 q 600 944 565 944 q 661 920 637 944 q 684 859 684 897 q 665 800 684 828 q 604 736 646 771 q 550 697 572 709 q 514 686 528 686 q 491 694 500 686 q 481 713 481 703 q 496 749 481 727 l 509 766 m 288 766 l 315 804 q 294 864 294 837 q 319 921 294 898 q 378 944 344 944 q 439 920 415 944 q 463 859 463 897 q 444 800 463 828 q 382 736 425 771 q 328 696 348 707 q 292 686 309 686 q 269 694 279 686 q 259 713 259 703 q 275 749 259 726 l 288 766 z "},"‘":{"ha":370,"x_min":259,"x_max":463,"o":"m 434 863 l 407 826 q 428 766 428 793 q 403 709 428 732 q 343 686 377 686 q 284 710 309 686 q 259 770 259 733 q 267 811 259 793 q 292 849 275 830 q 339 894 309 869 q 392 932 371 920 q 429 945 414 945 q 452 936 441 945 q 463 917 463 927 q 446 881 463 905 l 434 863 z "},"’":{"ha":370,"x_min":259,"x_max":463,"o":"m 288 766 l 315 804 q 294 864 294 837 q 319 921 294 898 q 378 944 344 944 q 439 920 415 944 q 463 859 463 897 q 444 800 463 828 q 382 736 425 771 q 328 696 348 707 q 292 686 309 686 q 269 694 279 686 q 259 713 259 703 q 275 749 259 726 l 288 766 z "},"÷":{"ha":555,"x_min":46,"x_max":509,"o":"m 56 916 l 56 9 l 500 9 l 500 916 l 56 916 m 509 0 l 46 0 l 46 926 l 509 926 l 509 0 z "},"◊":{"ha":555,"x_min":46,"x_max":509,"o":"m 56 916 l 56 9 l 500 9 l 500 916 l 56 916 m 509 0 l 46 0 l 46 926 l 509 926 l 509 0 z "},"ÿ":{"ha":633,"x_min":-195,"x_max":677,"o":"m 220 -176 l 125 -176 q 9 -200 47 -176 q -31 -275 -31 -225 q -8 -329 -31 -308 q 47 -351 14 -351 q 161 -280 111 -351 q 220 -176 186 -245 m 610 388 l 442 -28 l 520 -28 l 537 -28 q 588 -43 569 -28 q 606 -88 606 -60 q 578 -150 606 -125 q 508 -176 548 -176 l 492 -176 l 382 -176 q 356 -239 372 -207 q 298 -354 323 -312 q 251 -417 273 -395 q 50 -500 167 -500 q -75 -470 -19 -500 q -163 -389 -132 -440 q -195 -274 -195 -336 q -174 -181 -195 -225 q -118 -103 -155 -137 q -35 -53 -83 -71 q 157 -28 31 -28 l 267 -28 l 288 21 q 194 -3 237 -3 q 77 35 123 -3 q 32 132 32 72 q 61 241 32 170 l 135 423 q 181 496 157 476 q 243 518 206 518 q 294 500 273 518 q 313 454 313 481 q 296 387 313 433 l 230 225 q 213 172 213 186 q 225 150 213 158 q 256 142 237 142 q 318 160 286 142 q 360 201 351 178 l 451 423 l 458 441 q 500 498 474 479 q 559 518 526 518 q 608 500 589 518 q 628 453 628 481 q 618 406 628 430 l 610 388 m 326 606 q 261 634 288 606 q 234 700 234 661 q 261 764 234 738 q 326 790 288 790 q 391 764 365 790 q 418 699 418 737 q 391 634 418 662 q 326 606 363 606 m 585 606 q 519 633 546 606 q 493 700 493 661 q 521 764 493 738 q 585 790 549 790 q 650 764 624 790 q 677 699 677 737 q 650 634 677 662 q 585 606 623 606 z "},"Ÿ":{"ha":555,"x_min":46,"x_max":509,"o":"m 56 916 l 56 9 l 500 9 l 500 916 l 56 916 m 509 0 l 46 0 l 46 926 l 509 926 l 509 0 z "},"∕":{"ha":555,"x_min":46,"x_max":509,"o":"m 56 916 l 56 9 l 500 9 l 500 916 l 56 916 m 509 0 l 46 0 l 46 926 l 509 926 l 509 0 z "},"¤":{"ha":555,"x_min":46,"x_max":509,"o":"m 56 916 l 56 9 l 500 9 l 500 916 l 56 916 m 509 0 l 46 0 l 46 926 l 509 926 l 509 0 z "},"‹":{"ha":402,"x_min":92,"x_max":311,"o":"m 281 365 l 228 290 l 264 193 q 275 149 275 165 q 254 99 275 122 q 204 76 231 76 q 156 115 170 76 l 151 127 l 114 224 l 101 257 q 92 296 92 279 q 121 361 92 321 l 178 441 q 218 484 202 473 q 254 496 233 496 q 295 478 279 496 q 311 434 311 461 q 290 379 311 408 l 281 365 z "},"›":{"ha":402,"x_min":91,"x_max":310,"o":"m 121 206 l 174 281 l 138 378 q 127 422 127 408 q 149 473 127 449 q 198 495 171 495 q 247 456 233 495 l 252 444 l 288 347 l 301 314 q 310 275 310 292 q 281 210 310 250 l 224 130 q 185 87 201 99 q 149 76 168 76 q 108 94 125 76 q 91 137 91 111 q 112 192 91 163 l 121 206 z "},"":{"ha":555,"x_min":46,"x_max":509,"o":"m 56 916 l 56 9 l 500 9 l 500 916 l 56 916 m 509 0 l 46 0 l 46 926 l 509 926 l 509 0 z "},"":{"ha":555,"x_min":46,"x_max":509,"o":"m 56 916 l 56 9 l 500 9 l 500 916 l 56 916 m 509 0 l 46 0 l 46 926 l 509 926 l 509 0 z "},"‡":{"ha":555,"x_min":46,"x_max":509,"o":"m 56 916 l 56 9 l 500 9 l 500 916 l 56 916 m 509 0 l 46 0 l 46 926 l 509 926 l 509 0 z "},"·":{"ha":347,"x_min":120,"x_max":309,"o":"m 214 315 q 168 328 189 315 q 133 362 145 340 q 120 409 120 383 q 148 476 120 447 q 213 504 176 504 q 262 491 240 504 q 296 456 283 478 q 309 408 309 435 q 281 342 309 370 q 214 315 254 315 z "},"∙":{"ha":347,"x_min":120,"x_max":309,"o":"m 214 315 q 168 328 189 315 q 133 362 145 340 q 120 409 120 383 q 148 476 120 447 q 213 504 176 504 q 262 491 240 504 q 296 456 283 478 q 309 408 309 435 q 281 342 309 370 q 214 315 254 315 z "},"‚":{"ha":555,"x_min":46,"x_max":509,"o":"m 56 916 l 56 9 l 500 9 l 500 916 l 56 916 m 509 0 l 46 0 l 46 926 l 509 926 l 509 0 z "},"„":{"ha":591,"x_min":46,"x_max":471,"o":"m 296 -20 l 323 17 q 302 77 302 50 q 327 134 302 111 q 387 157 352 157 q 448 134 424 157 q 471 73 471 110 q 452 14 471 41 q 391 -51 433 -16 q 337 -90 359 -78 q 301 -101 315 -101 q 278 -92 288 -101 q 268 -73 268 -84 q 283 -38 268 -60 l 296 -20 m 75 -20 l 102 17 q 81 77 81 50 q 106 134 81 111 q 165 157 131 157 q 226 134 202 157 q 250 73 250 110 q 231 13 250 41 q 170 -51 212 -16 q 115 -90 135 -79 q 80 -101 96 -101 q 57 -93 67 -101 q 46 -73 46 -85 q 62 -38 46 -62 l 75 -20 z "},"‰":{"ha":1257,"x_min":111,"x_max":1247,"o":"m 1153 294 q 1116 342 1153 342 q 1022 260 1067 342 q 989 185 1001 222 q 978 123 978 147 q 989 90 978 103 q 1019 77 1000 77 q 1065 95 1044 77 q 1107 149 1085 112 q 1141 225 1128 186 q 1153 294 1153 265 m 745 294 q 708 342 745 342 q 614 260 660 342 q 571 123 571 184 q 583 90 571 103 q 611 77 593 77 q 701 149 659 77 q 732 224 718 180 q 745 294 745 264 m 383 714 q 345 762 383 762 q 252 680 297 762 q 208 544 208 604 q 220 510 208 524 q 249 497 231 497 q 338 568 298 497 q 383 714 383 647 m 1012 -7 q 916 26 950 -7 q 881 117 881 58 q 956 324 881 223 q 1123 422 1026 422 q 1214 388 1180 422 q 1247 294 1247 354 q 1214 147 1247 220 q 1131 34 1180 72 q 1012 -7 1080 -7 m 175 66 l 698 804 l 704 812 q 753 840 726 840 q 783 830 770 840 q 794 806 794 820 q 777 765 794 790 l 253 26 l 247 18 q 198 -10 227 -10 q 169 1 180 -10 q 157 25 157 11 q 175 66 157 39 m 604 -7 q 509 26 543 -7 q 474 117 474 58 q 493 221 474 168 q 548 324 513 275 q 715 422 621 422 q 806 388 772 422 q 840 294 840 354 q 807 147 840 222 q 724 34 774 73 q 604 -7 673 -7 m 241 414 q 146 446 180 414 q 111 536 111 479 q 132 643 111 588 q 186 745 151 697 q 353 842 256 842 q 444 808 410 842 q 477 715 477 774 q 444 567 477 640 q 361 454 410 492 q 241 414 310 414 z "},"Â":{"ha":555,"x_min":46,"x_max":509,"o":"m 56 916 l 56 9 l 500 9 l 500 916 l 56 916 m 509 0 l 46 0 l 46 926 l 509 926 l 509 0 z "},"Ê":{"ha":555,"x_min":46,"x_max":509,"o":"m 56 916 l 56 9 l 500 9 l 500 916 l 56 916 m 509 0 l 46 0 l 46 926 l 509 926 l 509 0 z "},"Á":{"ha":555,"x_min":46,"x_max":509,"o":"m 56 916 l 56 9 l 500 9 l 500 916 l 56 916 m 509 0 l 46 0 l 46 926 l 509 926 l 509 0 z "},"Ë":{"ha":555,"x_min":46,"x_max":509,"o":"m 56 916 l 56 9 l 500 9 l 500 916 l 56 916 m 509 0 l 46 0 l 46 926 l 509 926 l 509 0 z "},"È":{"ha":555,"x_min":46,"x_max":509,"o":"m 56 916 l 56 9 l 500 9 l 500 916 l 56 916 m 509 0 l 46 0 l 46 926 l 509 926 l 509 0 z "},"Í":{"ha":555,"x_min":46,"x_max":509,"o":"m 56 916 l 56 9 l 500 9 l 500 916 l 56 916 m 509 0 l 46 0 l 46 926 l 509 926 l 509 0 z "},"Î":{"ha":555,"x_min":46,"x_max":509,"o":"m 56 916 l 56 9 l 500 9 l 500 916 l 56 916 m 509 0 l 46 0 l 46 926 l 509 926 l 509 0 z "},"Ï":{"ha":555,"x_min":46,"x_max":509,"o":"m 56 916 l 56 9 l 500 9 l 500 916 l 56 916 m 509 0 l 46 0 l 46 926 l 509 926 l 509 0 z "},"Ì":{"ha":555,"x_min":46,"x_max":509,"o":"m 56 916 l 56 9 l 500 9 l 500 916 l 56 916 m 509 0 l 46 0 l 46 926 l 509 926 l 509 0 z "},"Ó":{"ha":555,"x_min":46,"x_max":509,"o":"m 56 916 l 56 9 l 500 9 l 500 916 l 56 916 m 509 0 l 46 0 l 46 926 l 509 926 l 509 0 z "},"Ô":{"ha":555,"x_min":46,"x_max":509,"o":"m 56 916 l 56 9 l 500 9 l 500 916 l 56 916 m 509 0 l 46 0 l 46 926 l 509 926 l 509 0 z "},"":{"ha":555,"x_min":46,"x_max":509,"o":"m 56 916 l 56 9 l 500 9 l 500 916 l 56 916 m 509 0 l 46 0 l 46 926 l 509 926 l 509 0 z "},"Ò":{"ha":555,"x_min":46,"x_max":509,"o":"m 56 916 l 56 9 l 500 9 l 500 916 l 56 916 m 509 0 l 46 0 l 46 926 l 509 926 l 509 0 z "},"Ú":{"ha":555,"x_min":46,"x_max":509,"o":"m 56 916 l 56 9 l 500 9 l 500 916 l 56 916 m 509 0 l 46 0 l 46 926 l 509 926 l 509 0 z "},"Û":{"ha":555,"x_min":46,"x_max":509,"o":"m 56 916 l 56 9 l 500 9 l 500 916 l 56 916 m 509 0 l 46 0 l 46 926 l 509 926 l 509 0 z "},"Ù":{"ha":555,"x_min":46,"x_max":509,"o":"m 56 916 l 56 9 l 500 9 l 500 916 l 56 916 m 509 0 l 46 0 l 46 926 l 509 926 l 509 0 z "},"ı":{"ha":378,"x_min":18,"x_max":369,"o":"m 304 388 l 207 148 l 283 148 l 300 148 q 369 87 369 147 q 340 26 369 52 q 271 0 311 0 l 255 0 l 146 0 q 52 24 86 0 q 18 92 18 49 q 33 148 18 113 l 144 423 l 152 441 q 252 518 184 518 q 302 500 283 518 q 321 453 321 481 q 312 406 321 431 l 304 388 z "},"ˆ":{"ha":529,"x_min":93,"x_max":436,"o":"m 324 635 l 284 671 l 203 627 q 145 606 168 606 q 109 624 125 606 q 93 662 93 642 q 106 701 93 684 q 151 734 119 718 l 230 776 q 297 798 271 798 q 333 781 314 798 q 338 778 336 780 q 342 774 341 776 q 347 770 347 770 l 401 724 q 436 663 436 697 q 420 623 436 639 q 378 607 403 607 q 366 608 368 607 q 356 612 361 609 q 344 619 348 616 q 337 625 342 621 q 324 635 332 629 z "},"˜":{"ha":534,"x_min":93,"x_max":441,"o":"m 422 681 l 383 637 q 320 606 357 606 q 253 635 288 606 q 227 651 234 651 q 205 638 218 651 q 146 611 178 611 q 109 627 124 611 q 93 665 93 642 q 115 716 93 687 l 142 750 q 217 789 174 789 q 275 766 241 789 l 296 751 q 312 745 306 745 q 329 754 321 745 l 345 770 q 379 785 359 785 q 424 769 405 785 q 441 730 441 753 q 422 681 441 704 z "},"¯":{"ha":555,"x_min":46,"x_max":509,"o":"m 56 916 l 56 9 l 500 9 l 500 916 l 56 916 m 509 0 l 46 0 l 46 926 l 509 926 l 509 0 z "},"˘":{"ha":555,"x_min":46,"x_max":509,"o":"m 56 916 l 56 9 l 500 9 l 500 916 l 56 916 m 509 0 l 46 0 l 46 926 l 509 926 l 509 0 z "},"˙":{"ha":555,"x_min":46,"x_max":509,"o":"m 56 916 l 56 9 l 500 9 l 500 916 l 56 916 m 509 0 l 46 0 l 46 926 l 509 926 l 509 0 z "},"˚":{"ha":431,"x_min":93,"x_max":338,"o":"m 216 661 q 248 673 235 661 q 261 706 261 687 q 248 738 261 725 q 216 751 235 751 q 184 738 197 751 q 170 707 170 724 q 184 674 170 688 q 216 661 197 661 m 216 583 q 154 600 181 583 q 109 646 125 616 q 93 707 93 674 q 110 768 93 741 q 155 812 126 796 q 216 829 183 829 q 277 812 249 829 q 322 768 306 795 q 338 706 338 739 q 322 645 338 673 q 277 600 305 616 q 216 583 250 583 z "},"¸":{"ha":555,"x_min":46,"x_max":509,"o":"m 56 916 l 56 9 l 500 9 l 500 916 l 56 916 m 509 0 l 46 0 l 46 926 l 509 926 l 509 0 z "},"ʺ":{"ha":555,"x_min":46,"x_max":509,"o":"m 56 916 l 56 9 l 500 9 l 500 916 l 56 916 m 509 0 l 46 0 l 46 926 l 509 926 l 509 0 z "},"˛":{"ha":555,"x_min":46,"x_max":509,"o":"m 56 916 l 56 9 l 500 9 l 500 916 l 56 916 m 509 0 l 46 0 l 46 926 l 509 926 l 509 0 z "},"ˇ":{"ha":555,"x_min":46,"x_max":509,"o":"m 56 916 l 56 9 l 500 9 l 500 916 l 56 916 m 509 0 l 46 0 l 46 926 l 509 926 l 509 0 z "}}}
